<?xml version="1.0" encoding="iso-8859-1"?>
<!-- Generator: Adobe Illustrator 21.0.0, SVG Export Plug-In . SVG Version: 6.00 Build 0)  -->
<svg version="1.1" id="Capa_1" xmlns="http://www.w3.org/2000/svg" xmlns:xlink="http://www.w3.org/1999/xlink" x="0px" y="0px"
	 viewBox="0 0 512 512" style="enable-background:new 0 0 512 512;" xml:space="preserve">
<g>
	<g transform="translate(1 1)">
		<g>
			<rect x="383" y="289.133" style="fill:#607D8B;" width="76.8" height="68.267"/>
			<path style="fill:#607D8B;" d="M476.867,280.6v17.067c0,4.713-3.821,8.533-8.533,8.533H383v-17.067h-17.067v-17.067h102.4
				C473.046,272.067,476.867,275.887,476.867,280.6z"/>
		</g>
		<g>
			<rect x="383" y="289.133" style="fill:#CFD8DC;" width="51.2" height="68.267"/>
			<path style="fill:#CFD8DC;" d="M451.267,280.6v17.067c0,4.713-3.821,8.533-8.533,8.533H383v-17.067h-17.067v-17.067h76.8
				C447.446,272.067,451.267,275.887,451.267,280.6z"/>
			<path style="fill:#CFD8DC;" d="M50.2,340.333l20.881-41.762c2.89-5.784,8.8-9.438,15.266-9.438H127v59.733L50.2,340.333z"/>
		</g>
		<path style="fill:#4527A0;" d="M92.867,24.6h324.267c18.851,0,34.133,15.282,34.133,34.133V75.8
			c0,18.851-15.282,34.133-34.133,34.133H92.867c-18.851,0-34.133-15.282-34.133-34.133V58.733
			C58.733,39.882,74.015,24.6,92.867,24.6z"/>
		<path style="fill:#673AB7;" d="M92.867,24.6h298.667c18.851,0,34.133,15.282,34.133,34.133V75.8
			c0,18.851-15.282,34.133-34.133,34.133H92.867c-18.851,0-34.133-15.282-34.133-34.133V58.733
			C58.733,39.882,74.015,24.6,92.867,24.6z"/>
		<path style="fill:#4E342E;" d="M476.867,344.6v123.733c0,18.851-15.282,34.133-34.133,34.133H67.267
			c-18.851,0-34.133-15.282-34.133-34.133V344.6c0-2.356,1.91-4.267,4.267-4.267h435.2
			C474.956,340.333,476.867,342.244,476.867,344.6z"/>
		<path style="fill:#795548;" d="M451.267,344.6v123.733c0,18.851-15.282,34.133-34.133,34.133H67.267
			c-18.851,0-34.133-15.282-34.133-34.133V344.6c0-2.356,1.91-4.267,4.267-4.267H447C449.356,340.333,451.267,342.244,451.267,344.6
			z"/>
		<g>
			<path style="fill:#00695C;" d="M391.533,246.467v221.867c0,18.851-15.282,34.133-34.133,34.133H152.6
				c-18.851,0-34.133-15.282-34.133-34.133V246.467H391.533z"/>
			<path style="fill:#00695C;" d="M407.747,228.547c0.44,9.415-6.802,17.419-16.213,17.92h-24.747
				c9.077-0.485,16.195-7.976,16.213-17.067v-0.853l-6.144-128.768c-0.865-18.182-15.845-32.487-34.048-32.512h24.747
				c18.203,0.025,33.183,14.33,34.048,32.512L407.747,228.547z"/>
		</g>
		<g>
			<path style="fill:#009688;" d="M366.787,246.467v221.867c0,18.851-15.282,34.133-34.133,34.133H152.6
				c-18.851,0-34.133-15.282-34.133-34.133V246.467H366.787z"/>
			<path style="fill:#009688;" d="M383,228.547v0.853c-0.019,9.09-7.136,16.582-16.213,17.067h-248.32
				c-9.077-0.485-16.195-7.976-16.213-17.067v-0.853l6.144-128.768c0.865-18.182,15.845-32.487,34.048-32.512h200.363
				c18.203,0.025,33.183,14.33,34.048,32.512L383,228.547z"/>
		</g>
		<g>
			<path style="fill:#795548;" d="M161.133,7.533H178.2c9.426,0,17.067,7.641,17.067,17.067v42.667h-51.2V24.6
				C144.067,15.174,151.708,7.533,161.133,7.533z"/>
			<path style="fill:#795548;" d="M331.8,7.533h17.067c9.426,0,17.067,7.641,17.067,17.067v42.667h-51.2V24.6
				C314.733,15.174,322.374,7.533,331.8,7.533z"/>
		</g>
		<path style="fill:#00695C;" d="M323.267,442.733v-51.2H186.733v51.2c0,9.426,7.641,17.067,17.067,17.067h102.4
			C315.626,459.8,323.267,452.159,323.267,442.733z"/>
		<g>
			<path style="fill:#795548;" d="M161.133,169.667l0,95.258c-0.004,1.921,0.593,3.794,1.707,5.359l17.067,23.808
				c1.551,2.24,4.102,3.577,6.827,3.577s5.276-1.337,6.827-3.577l17.067-23.808c1.114-1.565,1.711-3.438,1.707-5.359l0-95.258
				H161.133z"/>
			<path style="fill:#795548;" d="M297.667,169.667l0,95.258c-0.004,1.921,0.593,3.794,1.707,5.359l17.067,23.808
				c1.551,2.24,4.102,3.577,6.827,3.577s5.276-1.337,6.827-3.577l17.067-23.808c1.114-1.565,1.711-3.438,1.707-5.359l0-95.258
				H297.667z"/>
		</g>
		<path style="fill:#4E342E;" d="M340.333,348.867V395.8c0,2.356-1.91,4.267-4.267,4.267H173.933c-2.356,0-4.267-1.91-4.267-4.267
			v-46.933c0.028-9.414,7.653-17.039,17.067-17.067h136.533C332.681,331.828,340.305,339.453,340.333,348.867z"/>
		<path style="fill:#795548;" d="M314.733,348.867V395.8c0,2.356-1.91,4.267-4.267,4.267H173.933c-2.356,0-4.267-1.91-4.267-4.267
			v-46.933c0.028-9.414,7.653-17.039,17.067-17.067h110.933C307.081,331.828,314.705,339.453,314.733,348.867z"/>
	</g>
	<g>
		<path d="M324.267,324.267H187.733c-14.138,0-25.6,11.462-25.6,25.6V396.8c0,7.069,5.731,12.8,12.8,12.8h4.267v51.2
			c0,4.713,3.821,8.533,8.533,8.533c4.713,0,8.533-3.82,8.533-8.533v-51.2h119.467v51.2c0,4.713,3.821,8.533,8.533,8.533
			s8.533-3.82,8.533-8.533v-51.2h4.267c7.069,0,12.8-5.731,12.8-12.8v-46.933C349.867,335.728,338.405,324.267,324.267,324.267z
			 M332.8,392.533H179.2v-42.667c0-4.713,3.821-8.533,8.533-8.533h136.533c4.713,0,8.533,3.821,8.533,8.533V392.533z"/>
		<path d="M486.4,298.667V281.6c0-9.426-7.641-17.067-17.067-17.067h-68.267V254.08c10.149-4.032,16.648-14.031,16.213-24.943
			l-5.239-109.67h6.093c23.552-0.028,42.638-19.114,42.667-42.667V59.733c-0.028-23.552-19.114-42.638-42.667-42.667h-44.237
			C370.293,6.875,360.677,0.045,349.867,0H332.8c-10.81,0.045-20.427,6.875-24.03,17.067H203.23C199.627,6.875,190.01,0.045,179.2,0
			h-17.067c-10.81,0.045-20.427,6.875-24.03,17.067H93.867C70.314,17.095,51.228,36.181,51.2,59.733V76.8
			c0.028,23.552,19.114,42.638,42.667,42.667h6.093L94.72,229.163c-0.432,10.887,6.074,20.854,16.213,24.841V281.6H87.347
			c-9.705-0.034-18.584,5.453-22.895,14.148L45.926,332.8H38.4c-7.069,0-12.8,5.731-12.8,12.8v123.733
			c0.028,23.552,19.114,42.638,42.667,42.667h375.467c23.552-0.028,42.638-19.114,42.667-42.667V345.6c0-7.069-5.731-12.8-12.8-12.8
			h-4.267v-17.067C478.759,315.733,486.4,308.092,486.4,298.667z M469.333,281.6v17.067h-68.267V281.6H469.333z M153.6,494.933
			c-14.138,0-25.6-11.462-25.6-25.6V256h25.6v9.924c-0.011,3.703,1.144,7.316,3.302,10.325l17.067,23.817
			c3.156,4.474,8.289,7.134,13.764,7.134s10.608-2.661,13.764-7.134l17.067-23.817c2.161-3.008,3.317-6.622,3.302-10.325V256h68.267
			v9.924c-0.011,3.703,1.144,7.316,3.302,10.325l17.067,23.817c3.156,4.474,8.289,7.134,13.764,7.134
			c5.475,0,10.608-2.661,13.764-7.134l17.067-23.817c2.161-3.008,3.317-6.622,3.302-10.325V256H384v213.333
			c0,14.138-11.462,25.6-25.6,25.6H153.6z M117.922,101.18c0.616-13.646,11.864-24.389,25.523-24.38h225.109
			c13.663-0.009,24.911,10.739,25.523,24.388l6.144,128.734c0.279,4.583-3.119,8.565-7.689,9.011H358.4V179.2
			c4.713,0,8.533-3.821,8.533-8.533c0-4.713-3.82-8.533-8.533-8.533h-68.267c-4.713,0-8.533,3.821-8.533,8.533
			c0,4.713,3.821,8.533,8.533,8.533v59.733h-68.267V179.2c4.713,0,8.533-3.821,8.533-8.533c0-4.713-3.821-8.533-8.533-8.533H153.6
			c-4.713,0-8.533,3.821-8.533,8.533c0,4.713,3.82,8.533,8.533,8.533v59.733h-33.715c-2.267-0.11-4.397-1.119-5.919-2.804
			s-2.309-3.906-2.188-6.173L117.922,101.18z M204.8,34.133h102.4v25.6H204.8V34.133z M307.2,179.2h34.133l-0.102,87.108
			l-16.853,23.825L307.2,265.924V179.2z M170.667,179.2H204.8l-0.102,87.108l-16.853,23.825l-17.178-24.209V179.2z M443.733,59.733
			V76.8c0,14.138-11.462,25.6-25.6,25.6h-6.912l-0.094-2.022c-0.93-20.084-15.813-36.765-35.661-39.97V34.133h42.667
			C432.272,34.133,443.733,45.595,443.733,59.733z M332.8,17.067h17.067c4.713,0,8.533,3.821,8.533,8.533v34.133h-34.133V25.6
			C324.267,20.887,328.087,17.067,332.8,17.067z M162.133,17.067H179.2c4.713,0,8.533,3.821,8.533,8.533v34.133H153.6V25.6
			C153.6,20.887,157.421,17.067,162.133,17.067z M93.867,102.4c-14.138,0-25.6-11.462-25.6-25.6V59.733
			c0-14.138,11.462-25.6,25.6-25.6h42.667v26.274c-19.843,3.208-34.723,19.883-35.661,39.962l-0.102,2.031H93.867z M79.718,303.386
			c1.435-2.899,4.394-4.729,7.629-4.719l23.586,0V332.8H65.007L79.718,303.386z M42.667,469.333V349.867h68.267v119.467
			c0.031,9.263,3.108,18.258,8.755,25.6H68.267C54.128,494.933,42.667,483.472,42.667,469.333z M469.333,469.333
			c0,14.138-11.462,25.6-25.6,25.6h-51.422c5.647-7.342,8.724-16.337,8.755-25.6V349.867h68.267V469.333z M452.267,332.8h-51.2
			v-17.067h51.2V332.8z"/>
		<path d="M162.133,110.933h187.733c4.713,0,8.533-3.821,8.533-8.533c0-4.713-3.821-8.533-8.533-8.533H162.133
			c-4.713,0-8.533,3.821-8.533,8.533C153.6,107.113,157.421,110.933,162.133,110.933z"/>
		<path d="M273.067,358.4h-34.133c-4.713,0-8.533,3.82-8.533,8.533s3.821,8.533,8.533,8.533h34.133c4.713,0,8.533-3.82,8.533-8.533
			S277.78,358.4,273.067,358.4z"/>
	</g>
</g>
<g>
</g>
<g>
</g>
<g>
</g>
<g>
</g>
<g>
</g>
<g>
</g>
<g>
</g>
<g>
</g>
<g>
</g>
<g>
</g>
<g>
</g>
<g>
</g>
<g>
</g>
<g>
</g>
<g>
</g>
</svg>
