<?xml version="1.0" encoding="iso-8859-1"?>
<!-- Generator: Adobe Illustrator 19.0.0, SVG Export Plug-In . SVG Version: 6.00 Build 0)  -->
<svg version="1.1" id="Layer_1" xmlns="http://www.w3.org/2000/svg" xmlns:xlink="http://www.w3.org/1999/xlink" x="0px" y="0px"
	 viewBox="0 0 511.999 511.999" style="enable-background:new 0 0 511.999 511.999;" xml:space="preserve">
<path style="fill:#FAD2E3;" d="M480.56,252.06L480.56,252.06c0-17.406-14.111-31.518-31.518-31.518H252.06v31.518H480.56z"/>
<circle style="fill:#F5A5C7;" cx="252.065" cy="47.198" r="15.761"/>
<path style="fill:#86CBED;" d="M7.802,252.06c0-104.439,84.665-189.102,189.102-189.102L252.06,252.06"/>
<polygon style="fill:#FAD2E3;" points="252.06,252.06 220.543,252.06 165.388,62.957 196.905,62.957 "/>
<path style="fill:#86CBED;" d="M275.699,480.56h-39.397c-126.198,0-228.5-102.303-228.5-228.5l0,0h496.396l0,0
	C504.198,378.257,401.896,480.56,275.699,480.56z"/>
<circle style="fill:#FAD2E3;" cx="252.065" cy="346.617" r="39.396"/>
<path style="fill:#F5A5C7;" d="M252.06,307.214c-4.146,0-8.065,0.817-11.819,2.005c15.944,5.044,27.578,19.78,27.578,37.391
	s-11.635,32.348-27.578,37.391c3.753,1.188,7.673,2.006,11.819,2.006c21.758,0,39.396-17.639,39.396-39.397
	S273.818,307.214,252.06,307.214z"/>
<path style="fill:#297FA9;" d="M423.092,252.06c0,119.162-91.228,216.97-207.646,227.51c6.872,0.623,13.82,0.989,20.855,0.989
	h39.397c126.198,0,228.499-102.303,228.499-228.5H423.092z"/>
<rect x="362.367" y="307.21" style="fill:#FFFFFF;" width="63.032" height="31.521"/>
<rect x="244.179" y="338.815" style="fill:#1D1D1B;" width="15.761" height="15.604"/>
<g>
	<rect x="354.492" y="354.565" style="fill:#FFFFFF;" width="15.761" height="15.604"/>
	<rect x="386.013" y="354.565" style="fill:#FFFFFF;" width="15.761" height="15.604"/>
	<rect x="417.524" y="354.565" style="fill:#FFFFFF;" width="15.761" height="15.604"/>
</g>
<g>
	<path style="fill:#1D1D1B;" d="M433.208,346.534h-78.639v-47.121h78.639L433.208,346.534L433.208,346.534z M370.173,330.929h47.43
		v-15.912h-47.43V330.929z"/>
	<path style="fill:#1D1D1B;" d="M487.582,244.258c-3.63-17.956-19.53-31.517-38.54-31.517H259.863V69.426
		c9.168-3.229,15.758-11.971,15.758-22.228c0-12.991-10.569-23.561-23.561-23.561c-12.991,0-23.561,10.569-23.561,23.561
		c0,10.257,6.591,19,15.758,22.228v128.018L202.756,55.155h-5.852c-105.96,0-192.624,84.132-196.736,189.102H0v7.802
		c0,63.119,24.58,122.46,69.211,167.091s103.972,69.211,167.09,69.211h39.397c63.118,0,122.459-24.58,167.09-69.211
		s69.211-103.972,69.211-167.091v-7.802H487.582z M449.042,228.345c10.343,0,19.156,6.659,22.39,15.912h-211.57v-15.912H449.042z
		 M252.06,39.242c4.388,0,7.956,3.569,7.956,7.956s-3.569,7.956-7.956,7.956s-7.956-3.569-7.956-7.956S247.672,39.242,252.06,39.242
		z M241.657,244.258h-15.333L173.963,72.212c5.631-0.714,11.339-1.178,17.118-1.361L241.657,244.258z M158.46,74.872l51.553,169.386
		H15.782C19.328,160.946,79.351,92.018,158.46,74.872z M275.699,472.757h-39.397c-111.016,0-203.137-82.407-218.448-189.258h13.587
		v-15.604H16.184c-0.19-2.666-0.349-5.342-0.443-8.034h228.517v8.034H47.198V283.5h197.06v16.569
		c-22.325,3.732-39.396,23.175-39.396,46.542c0,26.026,21.173,47.198,47.198,47.198s47.198-21.173,47.198-47.198
		c0-23.367-17.072-42.81-39.396-46.542V283.5h204.939v-15.604H259.863v-8.034h236.397c-0.095,2.692-0.253,5.367-0.444,8.034H480.56
		V283.5h13.587C478.835,390.35,386.714,472.757,275.699,472.757z M259.863,315.994c13.66,3.484,23.792,15.889,23.792,30.618
		c0,17.421-14.173,31.594-31.594,31.594s-31.594-14.173-31.594-31.594c0-14.729,10.131-27.134,23.792-30.618v14.859h15.604V315.994
		L259.863,315.994z"/>
</g>
<g>
</g>
<g>
</g>
<g>
</g>
<g>
</g>
<g>
</g>
<g>
</g>
<g>
</g>
<g>
</g>
<g>
</g>
<g>
</g>
<g>
</g>
<g>
</g>
<g>
</g>
<g>
</g>
<g>
</g>
</svg>
