<?xml version="1.0" encoding="iso-8859-1"?>
<!-- Generator: Adobe Illustrator 19.0.0, SVG Export Plug-In . SVG Version: 6.00 Build 0)  -->
<svg version="1.1" id="Layer_1" xmlns="http://www.w3.org/2000/svg" xmlns:xlink="http://www.w3.org/1999/xlink" x="0px" y="0px"
	 viewBox="0 0 512 512" style="enable-background:new 0 0 512 512;" xml:space="preserve">
<g transform="translate(1 1)">
	<path style="fill:#FFDD09;" d="M127,169.667c0-70.827,57.173-128,128-128s128,57.173,128,128V229.4
		c0,75.093-57.173,153.6-128,153.6s-128-78.507-128-153.6V169.667z"/>
	<path style="fill:#FD9808;" d="M357.4,229.4v-59.733c0-66.56-50.347-121.173-115.2-127.147c4.267-0.853,8.533-0.853,12.8-0.853
		c70.827,0,128,57.173,128,128V229.4c0,75.093-57.173,153.6-128,153.6c-4.267,0-8.533,0-12.8-0.853
		C307.053,373.613,357.4,300.227,357.4,229.4"/>
	<path style="fill:#1CD759;" d="M400.067,140.653c0,23.893-22.187,42.667-46.08,38.4c-66.56-11.947-133.973-11.947-198.827,0
		c-23.893,4.267-46.08-14.507-46.08-38.4c0.853-59.733,48.64-107.52,108.373-107.52H293.4
		C352.28,33.133,400.067,80.92,400.067,140.653"/>
	<g>
		<path style="fill:#15A143;" d="M292.547,32.28h-11.093c52.907,6.827,93.013,51.2,93.013,105.813l0,0
			c0,18.773-12.8,34.133-29.867,37.547c3.413,0.853,6.827,0.853,10.24,1.707c23.893,4.267,46.08-14.507,46.08-38.4
			C400.067,80.067,352.28,32.28,292.547,32.28"/>
		<path style="fill:#15A143;" d="M353.987,179.053c22.187,4.267,43.52-11.947,45.227-34.987l-45.227-7.68
			c-66.56-11.947-133.973-11.947-198.827,0l-45.227,7.68c1.707,22.187,23.04,38.4,45.227,34.987
			C220.013,166.253,287.427,166.253,353.987,179.053"/>
	</g>
	<g>
		<polygon style="fill:#54C9FD;" points="237.933,101.4 272.067,101.4 272.067,58.733 237.933,58.733 		"/>
		<path style="fill:#54C9FD;" d="M212.333,109.933c0-56.32-46.08-102.4-102.4-102.4s-102.4,46.08-102.4,102.4
			s46.08,102.4,102.4,102.4S212.333,166.253,212.333,109.933"/>
	</g>
	<path style="fill:#FFFFFF;" d="M33.133,109.933c0-52.053,39.253-95.573,89.6-101.547c-4.267-0.853-8.533-0.853-12.8-0.853
		c-56.32,0-102.4,46.08-102.4,102.4s46.08,102.4,102.4,102.4c4.267,0,8.533,0,12.8-0.853
		C72.387,205.507,33.133,161.987,33.133,109.933"/>
	<path style="fill:#1CD759;" d="M481.987,431.64c-46.933-24.747-92.16-43.52-133.12-48.64H344.6l-55.467,76.8L255,383l-34.133,76.8
		L165.4,383h-4.267c-40.96,5.12-86.187,23.893-133.12,48.64c-12.8,6.827-20.48,19.627-20.48,34.133v36.693h204.8h85.333H383h119.467
		v-36.693C502.467,451.267,494.787,438.467,481.987,431.64"/>
	<path style="fill:#15A143;" d="M481.987,431.64c-46.933-24.747-92.16-43.52-133.12-48.64H344.6l-2.56,3.413
		c35.84,7.68,73.387,23.893,113.493,45.227c12.8,6.827,20.48,19.627,20.48,34.133v36.693h25.6v-36.693
		C502.467,451.267,494.787,438.467,481.987,431.64"/>
	<g>
		<path style="fill:#FFDD09;" d="M163.693,332.653l-2.56-0.853l-8.533,34.133l68.267,93.867L255,383
			C219.16,383,186.733,362.52,163.693,332.653"/>
		<path style="fill:#FFDD09;" d="M346.307,332.653C323.267,362.52,290.84,383,255,383l34.133,76.8l68.267-93.867l-8.533-34.133
			L346.307,332.653z"/>
	</g>
	<path style="fill:#FFFFFF;" d="M28.013,431.64c46.933-24.747,92.16-43.52,133.12-48.64h4.267l2.56,3.413
		c-35.84,7.68-73.387,23.893-113.493,45.227c-13.653,6.827-21.333,19.627-21.333,34.133v36.693h-25.6v-36.693
		C7.533,451.267,15.213,438.467,28.013,431.64"/>
	<path d="M220.867,468.333c-2.56,0-5.12-1.707-6.827-3.413l-68.267-93.867c-1.707-2.56-1.707-5.12-1.707-6.827l8.533-34.133
		c0.853-2.56,2.56-4.267,5.12-5.973c2.56-0.853,5.12-0.853,7.68,0l2.56,0.853c0.853,0.853,1.707,1.707,2.56,2.56
		c23.893,29.867,53.76,46.933,84.48,46.933c2.56,0,5.973,1.707,6.827,4.267c0.853,2.56,1.707,5.12,0.853,8.533l-34.133,76.8
		c-0.853,2.56-4.267,5.12-6.827,5.12C221.72,468.333,220.867,468.333,220.867,468.333z M161.987,364.227l57.173,78.507l23.04-52.053
		c-27.307-3.413-54.613-17.92-76.8-41.813L161.987,364.227z"/>
	<path d="M289.133,468.333h-0.853c-3.413,0-5.973-2.56-6.827-5.12l-34.133-76.8c-0.853-2.56-0.853-5.973,0.853-8.533
		c1.707-2.56,4.267-3.413,6.827-3.413c31.573,0,61.44-16.213,84.48-46.933c0.853-0.853,1.707-1.707,2.56-2.56l2.56-0.853
		c2.56-0.853,5.12-1.707,7.68,0c2.56,0.853,4.267,3.413,5.12,5.973l8.533,34.133c0.853,2.56,0,5.12-1.707,6.827L295.96,464.92
		C294.253,466.627,291.693,468.333,289.133,468.333z M267.8,390.68l23.04,52.053l57.173-78.507l-3.413-15.36
		C322.413,372.76,295.107,387.267,267.8,390.68z"/>
	<path d="M502.467,511H7.533C2.413,511-1,507.587-1,502.467v-36.693c0-17.92,9.387-34.133,25.6-41.813
		c56.32-29.867,98.133-45.227,135.68-49.493h0.853h4.267c2.56,0,5.12,1.707,6.827,3.413l46.933,64.853l28.16-63.147
		c1.707-3.413,4.267-5.12,7.68-5.12s6.827,1.707,7.68,5.12l28.16,63.147l46.933-64.853c1.707-2.56,4.267-3.413,6.827-3.413h4.267
		h0.853c37.547,4.267,79.36,19.627,135.68,49.493l0,0c15.36,8.533,25.6,24.747,25.6,41.813v36.693
		C511,507.587,507.587,511,502.467,511z M297.667,493.933h196.267v-28.16c0-11.093-5.973-21.333-16.213-27.307
		c-53.76-28.16-93.867-42.667-128.853-47.787l-52.907,73.387c-1.707,2.56-5.12,3.413-7.68,3.413c-3.413,0-5.973-2.56-6.827-5.12
		L255,404.333l-26.453,58.88c-0.853,2.56-4.267,5.12-6.827,5.12c-3.413,0-5.973-0.853-7.68-3.413l-52.907-73.387
		c-34.987,4.267-74.24,18.773-128.853,47.787c-10.24,5.12-16.213,15.36-16.213,26.453v28.16H297.667z"/>
	<path d="M272.067,109.933h-34.133c-5.12,0-8.533-3.413-8.533-8.533V58.733c0-5.12,3.413-8.533,8.533-8.533h34.133
		c5.12,0,8.533,3.413,8.533,8.533V101.4C280.6,106.52,277.187,109.933,272.067,109.933z M246.467,92.867h17.067v-25.6h-17.067
		V92.867z"/>
	<path d="M161.133,152.6c-5.12,0-8.533-3.413-8.533-8.533V127h-34.133c-3.413,0-5.973-1.707-7.68-5.12
		c-1.707-3.413-0.853-6.827,0.853-9.387l42.667-51.2c2.56-2.56,5.973-3.413,9.387-2.56c3.413,1.707,5.973,5.12,5.973,8.533v42.667
		h8.533c5.12,0,8.533,3.413,8.533,8.533S183.32,127,178.2,127h-8.533v17.067C169.667,149.187,166.253,152.6,161.133,152.6z
		 M136.387,109.933H152.6V91.16L136.387,109.933z"/>
	<path d="M101.4,152.6H54.467c-5.12,0-9.387-3.413-11.947-7.68c-1.707-5.12-0.853-10.24,3.413-13.653l38.4-33.28
		c4.267-4.267,4.267-10.24,2.56-13.653C86.04,81.773,83.48,75.8,75.8,75.8c-9.387,0-17.067,7.68-17.067,17.067
		c0,5.12-3.413,8.533-8.533,8.533s-8.533-3.413-8.533-8.533c0-18.773,15.36-34.133,34.133-34.133c12.8,0,22.187,6.827,27.307,18.773
		c4.267,11.093,1.707,24.747-6.827,33.28l-29.867,25.6H101.4c5.12,0,8.533,3.413,8.533,8.533
		C109.933,150.04,106.52,152.6,101.4,152.6z M57.027,144.067L57.027,144.067L57.027,144.067z"/>
	<path d="M109.933,220.867C48.493,220.867-1,171.373-1,109.933S48.493-1,109.933-1s110.933,49.493,110.933,110.933
		S171.373,220.867,109.933,220.867z M109.933,16.067c-52.053,0-93.867,41.813-93.867,93.867S57.88,203.8,109.933,203.8
		s93.867-41.813,93.867-93.867S161.987,16.067,109.933,16.067z"/>
	<path d="M360.813,187.587c-2.56,0-5.12,0-8.533-0.853c-53.76-9.387-108.373-11.093-162.133-5.12c-3.413,0-6.827-1.707-8.533-4.267
		c-1.707-3.413-1.707-6.827,0.853-9.387c13.653-17.067,20.48-36.693,20.48-58.027c0-24.747-9.387-47.787-26.453-65.707
		c-1.707-1.707-2.56-5.12-2.56-7.68c0.853-2.56,2.56-5.12,5.973-5.973c12.8-4.267,24.747-5.973,37.547-5.973H293.4
		c63.147,0,115.2,52.053,115.2,116.053c0,13.653-5.973,27.307-17.067,36.693C383,184.173,371.907,187.587,360.813,187.587z
		 M255,161.133c33.28,0,67.413,3.413,100.693,9.387c8.533,1.707,17.92-0.853,24.747-6.827c6.827-5.973,11.093-14.507,11.093-23.04
		c0-54.613-44.373-98.987-98.987-98.987H216.6c-5.973,0-11.947,0.853-18.773,1.707c14.507,18.773,22.187,42.667,22.187,66.56
		c0,18.773-4.267,36.693-13.653,53.76C223.427,161.987,238.787,161.133,255,161.133z"/>
	<path d="M361.667,187.587c-2.56,0-5.973,0-8.533-0.853c-53.76-9.387-108.373-11.093-162.133-5.12c-3.413,0-6.827-1.707-8.533-4.267
		c-1.707-3.413-1.707-6.827,0.853-9.387c9.387-11.947,16.213-26.453,18.773-40.96c0.853-3.413,4.267-6.827,7.68-6.827
		c48.64-4.267,97.28-1.707,145.92,7.68l45.227,7.68c4.267,0.853,7.68,5.12,6.827,9.387c-0.853,12.8-7.68,25.6-18.773,33.28
		C381.293,184.173,371.907,187.587,361.667,187.587z M255,161.133c33.28,0,67.413,3.413,100.693,9.387
		c8.533,1.707,17.067-0.853,23.893-5.973c4.267-3.413,8.533-8.533,10.24-13.653l-36.693-6.827l0,0
		c-45.227-7.68-90.453-10.24-135.68-7.68c-2.56,9.387-5.973,17.92-10.24,26.453C223.427,161.987,238.787,161.133,255,161.133z"/>
	<path d="M255,391.533c-78.507,0-136.533-85.333-136.533-162.133v-18.773c0-4.267,3.413-7.68,6.827-8.533
		c23.04-3.413,43.52-16.213,58.027-34.133c1.707-1.707,3.413-2.56,5.973-3.413c55.467-6.827,111.787-5.12,166.4,5.12
		c7.68,1.707,15.36,0,22.187-5.12c2.56-1.707,5.973-1.707,8.533-0.853c2.56,1.707,4.267,4.267,4.267,7.68V229.4
		C391.533,306.2,333.507,391.533,255,391.533z M135.533,217.453V229.4c0,82.773,63.147,145.067,119.467,145.067
		S374.467,312.173,374.467,229.4v-43.52c-6.827,1.707-14.507,2.56-21.333,0.853l0,0c-52.907-9.387-105.813-11.093-158.72-5.12
		C179.053,199.533,158.573,212.333,135.533,217.453z"/>
</g>
<g>
</g>
<g>
</g>
<g>
</g>
<g>
</g>
<g>
</g>
<g>
</g>
<g>
</g>
<g>
</g>
<g>
</g>
<g>
</g>
<g>
</g>
<g>
</g>
<g>
</g>
<g>
</g>
<g>
</g>
</svg>
