<?xml version="1.0" encoding="iso-8859-1"?>
<!-- Generator: Adobe Illustrator 19.0.0, SVG Export Plug-In . SVG Version: 6.00 Build 0)  -->
<svg version="1.1" id="Capa_1" xmlns="http://www.w3.org/2000/svg" xmlns:xlink="http://www.w3.org/1999/xlink" x="0px" y="0px"
	 viewBox="0 0 512 512" style="enable-background:new 0 0 512 512;" xml:space="preserve">
<path style="fill:#D12136;" d="M392.422,253.85l-63.147-5.12c-9.395-0.759-16.401-8.986-15.642-18.381
	c0.358-4.489,2.483-8.653,5.905-11.588l48.077-41.242c-17.417-24.781-42.556-43.085-71.484-52.053l-24.397,58.539
	c-3.627,8.704-13.619,12.809-22.323,9.182c-4.156-1.732-7.458-5.035-9.182-9.182l-24.337-58.487
	c-28.928,8.969-54.067,27.273-71.484,52.053l48.077,41.242c7.159,6.135,7.987,16.905,1.852,24.064
	c-2.935,3.422-7.1,5.538-11.588,5.905l-63.147,5.12c0,0.725-0.111,1.425-0.111,2.15c-0.017,29.568,9.634,58.334,27.477,81.92
	l54.025-32.956c8.047-4.907,18.551-2.364,23.458,5.683c2.347,3.849,3.072,8.465,2.031,12.843l-14.66,61.611
	c28.629,9.941,59.776,9.941,88.405,0l-14.66-61.611c-2.185-9.165,3.473-18.372,12.646-20.557c4.378-1.041,8.994-0.316,12.843,2.031
	l53.999,32.905c17.843-23.586,27.494-52.352,27.477-81.92C392.533,255.275,392.439,254.575,392.422,253.85z M256,281.6
	c-14.14,0-25.6-11.46-25.6-25.6c0-14.14,11.46-25.6,25.6-25.6c14.14,0,25.6,11.46,25.6,25.6C281.6,270.14,270.14,281.6,256,281.6z"
	/>
<path style="fill:#2B2733;" d="M256,8.533C119.33,8.533,8.533,119.33,8.533,256S119.33,503.467,256,503.467
	S503.467,392.67,503.467,256S392.67,8.533,256,8.533z M256,392.533c-75.409,0-136.533-61.124-136.533-136.533
	S180.591,119.467,256,119.467S392.533,180.591,392.533,256S331.409,392.533,256,392.533z"/>
<path style="fill:#1A1721;" d="M417.673,68.727c89.318,103.398,77.918,259.627-25.481,348.945
	c-92.894,80.247-230.571,80.247-323.465,0c89.276,103.441,245.504,114.927,348.945,25.643S532.599,197.811,443.315,94.37
	C435.405,85.205,426.837,76.638,417.673,68.727z"/>
<rect x="174.958" y="20.009" transform="matrix(-0.9511 0.309 -0.309 -0.9511 368.1425 7.3157)" style="fill:#555160;" width="17.067" height="25.601"/>
<rect x="320.014" y="466.365" transform="matrix(-0.9511 0.309 -0.309 -0.9511 789.0757 833.3662)" style="fill:#3B3944;" width="17.067" height="25.601"/>
<rect x="247.467" y="8.533" style="fill:#555160;" width="17.067" height="25.6"/>
<rect x="247.467" y="477.867" style="fill:#3B3944;" width="17.067" height="25.6"/>
<rect x="109.528" y="53.354" transform="matrix(-0.8089 0.5879 -0.5879 -0.8089 252.4571 50.2569)" style="fill:#555160;" width="17.066" height="25.599"/>
<rect x="385.366" y="433.039" transform="matrix(-0.8089 0.5879 -0.5879 -0.8089 974.648 574.9086)" style="fill:#3B3944;" width="17.066" height="25.599"/>
<rect x="57.612" y="105.273" transform="matrix(-0.5879 0.8089 -0.8089 -0.5879 200.5436 133.9828)" style="fill:#555160;" width="17.066" height="25.599"/>
<rect x="437.308" y="381.135" transform="matrix(-0.5879 0.8089 -0.8089 -0.5879 1026.6208 264.8841)" style="fill:#3B3944;" width="17.066" height="25.599"/>
<rect x="24.278" y="170.688" transform="matrix(-0.309 0.9511 -0.9511 -0.309 217.4592 208.9789)" style="fill:#555160;" width="17.067" height="25.601"/>
<rect x="470.671" y="315.749" transform="matrix(-0.309 0.9511 -0.9511 -0.309 939.7455 -25.6867)" style="fill:#3B3944;" width="17.067" height="25.601"/>
<rect x="8.533" y="247.467" style="fill:#555160;" width="25.6" height="17.067"/>
<rect x="477.867" y="247.467" style="fill:#3B3944;" width="25.6" height="17.067"/>
<g>
	
		<rect x="20.047" y="319.97" transform="matrix(-0.951 0.3091 -0.3091 -0.951 165.6282 630.7657)" style="fill:#555160;" width="25.599" height="17.066"/>
	
		<rect x="53.327" y="385.381" transform="matrix(-0.809 0.5878 -0.5878 -0.809 351.1673 673.7229)" style="fill:#555160;" width="25.6" height="17.067"/>
	
		<rect x="381.121" y="57.617" transform="matrix(-0.5878 0.809 -0.809 -0.5878 678.9839 -213.6503)" style="fill:#555160;" width="25.6" height="17.067"/>
	
		<rect x="315.739" y="24.288" transform="matrix(-0.3091 0.951 -0.951 -0.3091 461.3064 -269.4821)" style="fill:#555160;" width="25.599" height="17.066"/>
</g>
<g>
	<path style="fill:#3B3944;" d="M493.995,187.648l-5.282-16.213l-16.725,5.436c1.237,5.581,2.313,11.213,3.166,16.922
		L493.995,187.648z"/>
	<path style="fill:#3B3944;" d="M461.218,117.444l-10.027-13.807l-5.82,4.267c2.842,4.975,5.581,10.027,8.081,15.223
		L461.218,117.444z"/>
	<path style="fill:#3B3944;" d="M103.637,451.191l13.807,10.027l5.649-7.765c-5.197-2.5-10.24-5.239-15.223-8.081L103.637,451.191z"
		/>
	<path style="fill:#3B3944;" d="M171.409,488.713l16.213,5.282l6.118-18.842c-5.709-0.853-11.341-1.929-16.922-3.166
		L171.409,488.713z"/>
</g>
<g>
	<path style="fill:#555160;" d="M469.649,195.558l5.504-1.792c-0.853-5.709-1.929-11.341-3.166-16.922l-7.62,2.475L469.649,195.558z
		"/>
	<path style="fill:#555160;" d="M440.516,132.497l12.937-9.387c-2.5-5.197-5.239-10.24-8.081-15.223l-14.891,10.82L440.516,132.497z
		"/>
	<path style="fill:#555160;" d="M118.69,430.481l-10.82,14.891c4.975,2.842,10.027,5.581,15.223,8.081l9.387-12.937L118.69,430.481z
		"/>
	<path style="fill:#555160;" d="M179.319,464.367l-2.475,7.62c5.581,1.237,11.213,2.313,16.922,3.166l1.792-5.504L179.319,464.367z"
		/>
	<path style="fill:#555160;" d="M256,76.8c-98.97,0-179.2,80.23-179.2,179.2S157.03,435.2,256,435.2S435.2,354.97,435.2,256
		S354.97,76.8,256,76.8z M256,392.533c-75.409,0-136.533-61.124-136.533-136.533S180.591,119.467,256,119.467
		S392.533,180.591,392.533,256S331.409,392.533,256,392.533z"/>
</g>
<path style="fill:#3B3944;" d="M378.24,125.218c67.61,72.124,63.957,185.404-8.166,253.022c-68.855,64.546-175.991,64.546-244.847,0
	c67.413,72.32,180.693,76.297,253.022,8.883s76.297-180.693,8.883-253.022C384.273,131.038,381.303,128.077,378.24,125.218z"/>
<g>
	<path style="fill:#9C1928;" d="M333.653,143.898c-11.494-8.021-24.158-14.225-37.547-18.381l-4.702,11.273
		C305.715,137.54,319.889,139.921,333.653,143.898z"/>
	<path style="fill:#9C1928;" d="M224.188,145.51l-8.294-19.994c-28.928,8.969-54.067,27.273-71.484,52.053l10.044,8.619
		C174.473,167.723,198.263,153.847,224.188,145.51z"/>
</g>
<path d="M256,68.267C152.32,68.267,68.267,152.32,68.267,256S152.32,443.733,256,443.733S443.733,359.68,443.733,256
	C443.614,152.363,359.637,68.386,256,68.267z M256,426.667c-94.259,0-170.667-76.408-170.667-170.667S161.741,85.333,256,85.333
	S426.667,161.741,426.667,256C426.556,350.208,350.208,426.556,256,426.667z"/>
<path d="M256,110.933c-80.119,0-145.067,64.947-145.067,145.067S175.881,401.067,256,401.067S401.067,336.119,401.067,256
	C400.981,175.915,336.085,111.019,256,110.933z M383.42,244.565l-53.444-4.318c-4.693-0.393-8.183-4.523-7.791-9.216
	c0.188-2.227,1.237-4.292,2.935-5.751l40.61-34.842C375.654,206.908,381.696,225.417,383.42,244.565z M284.493,131.311
	l-20.617,49.493c-1.818,4.352-6.81,6.409-11.162,4.591c-2.074-0.862-3.729-2.517-4.591-4.591l-20.617-49.493
	C246.246,126.899,265.754,126.899,284.493,131.311z M146.253,190.421l40.627,34.859c3.575,3.063,3.994,8.457,0.922,12.032
	c-1.468,1.707-3.55,2.773-5.786,2.953l-53.444,4.318c1.724-19.166,7.774-37.683,17.707-54.161H146.253z M159.71,340.087
	l45.67-27.861c4.019-2.458,9.276-1.186,11.733,2.833c1.178,1.92,1.545,4.233,1.015,6.426l-12.39,52.207
	c-17.655-7.62-33.374-19.106-46.003-33.604H159.71z M221.926,379.264l12.8-53.828c3.268-13.756-5.231-27.554-18.987-30.831
	c-6.571-1.562-13.491-0.469-19.251,3.055l-47.223,28.826c-12.749-19.285-20.002-41.677-20.975-64.777l55.108-4.454
	c14.089-1.152,24.576-13.517,23.424-27.605c-0.555-6.716-3.729-12.945-8.849-17.34l-41.984-36.011
	c14.43-18.048,33.459-31.872,55.083-40.013l21.265,51.055c5.436,13.056,20.42,19.226,33.476,13.79
	c6.238-2.594,11.196-7.552,13.79-13.79l21.274-51.055c21.623,8.141,40.653,21.965,55.083,40.013l-41.933,36.011
	c-10.726,9.207-11.964,25.37-2.756,36.096c4.395,5.12,10.633,8.303,17.357,8.849l55.108,4.454
	c-0.973,23.1-8.226,45.491-20.975,64.777l-47.283-28.834c-12.066-7.364-27.827-3.55-35.191,8.516
	c-3.516,5.769-4.617,12.689-3.046,19.268l12.8,53.828c-22.263,6.315-45.833,6.315-68.096,0L221.926,379.264L221.926,379.264z
	 M306.236,373.692l-12.416-52.207c-1.092-4.582,1.741-9.182,6.323-10.274c2.193-0.521,4.497-0.154,6.426,1.015l45.67,27.861
	c-12.621,14.498-28.331,25.984-45.978,33.604H306.236z"/>
<path d="M290.133,256c0-18.85-15.283-34.133-34.133-34.133c-18.85,0-34.133,15.283-34.133,34.133
	c0,18.85,15.283,34.133,34.133,34.133C274.85,290.133,290.133,274.85,290.133,256z M256,273.067
	c-9.429,0-17.067-7.637-17.067-17.067c0-9.429,7.637-17.067,17.067-17.067c9.429,0,17.067,7.637,17.067,17.067
	C273.067,265.429,265.429,273.067,256,273.067z"/>
<path d="M256,512C114.611,512,0,397.389,0,256S114.611,0,256,0s256,114.611,256,256C511.838,397.321,397.321,511.838,256,512z
	 M256,17.067C124.041,17.067,17.067,124.041,17.067,256S124.041,494.933,256,494.933S494.933,387.96,494.933,256
	C494.78,124.1,387.9,17.22,256,17.067z"/>
<g>
</g>
<g>
</g>
<g>
</g>
<g>
</g>
<g>
</g>
<g>
</g>
<g>
</g>
<g>
</g>
<g>
</g>
<g>
</g>
<g>
</g>
<g>
</g>
<g>
</g>
<g>
</g>
<g>
</g>
</svg>
