<?xml version="1.0" encoding="iso-8859-1"?>
<!-- Generator: Adobe Illustrator 19.0.0, SVG Export Plug-In . SVG Version: 6.00 Build 0)  -->
<svg version="1.1" id="Capa_1" xmlns="http://www.w3.org/2000/svg" xmlns:xlink="http://www.w3.org/1999/xlink" x="0px" y="0px"
	 viewBox="0 0 487.362 487.362" style="enable-background:new 0 0 487.362 487.362;" xml:space="preserve">
<path style="fill:#0378A3;" d="M363.681,375.362h54.544l-9.256-101.792c-2.996-32.965-30.635-58.207-63.736-58.208h-61.552l-40,56
	l-40-56h-61.552c-33.101,0.001-60.74,25.242-63.736,58.208l-9.256,101.792H363.681z"/>
<g>
	<path style="fill:#DFB28B;" d="M418.225,375.362h-54.544h-240H69.137l-9.456,104h40h288h40L418.225,375.362z"/>
	<path style="fill:#DFB28B;" d="M283.681,215.362l-40,56l-40-56v-48h80V215.362z"/>
</g>
<path style="fill:#ECC19C;" d="M187.681,95.362v47.84c0.002,20.094,10.77,38.647,28.216,48.616c17.216,9.838,38.352,9.838,55.568,0
	c17.446-9.969,28.214-28.522,28.216-48.616v-47.84"/>
<path style="fill:#0378A3;" d="M187.681,79.202V35.434c0.001-7.145,4.738-13.423,11.608-15.384l40-11.432
	c2.875-0.827,5.925-0.827,8.8,0l40,11.432c6.864,1.967,11.593,8.244,11.592,15.384v43.768"/>
<path style="fill:#A67C52;" d="M123.681,295.362h240v184h-240V295.362z"/>
<path style="fill:#C69C6D;" d="M219.681,295.362h48v96h-48V295.362z"/>
<path style="fill:#ECC19C;" d="M163.681,479.362h-72v-56c0-8.837,7.163-16,16-16s16,7.163,16,16v24h40c8.837,0,16,7.163,16,16
	S172.518,479.362,163.681,479.362z"/>
<path style="fill:#29485A;" d="M189.625,104.69l21.072-5.264c21.656-5.416,44.312-5.416,65.968,0l21.072,5.264
	c4.286,1.074,8.631-1.53,9.704-5.816c0.157-0.625,0.237-1.267,0.24-1.912V81.426c0.004-3.672-2.494-6.876-6.056-7.768l-24.96-6.232
	c-21.656-5.416-44.312-5.416-65.968,0l-24.96,6.232c-3.562,0.892-6.06,4.096-6.056,7.768v15.536
	c0.018,4.418,3.614,7.986,8.032,7.968C188.358,104.927,189,104.847,189.625,104.69z"/>
<path style="fill:#ECC19C;" d="M323.681,479.362h72v-56c0-8.837-7.163-16-16-16s-16,7.163-16,16v24h-40c-8.837,0-16,7.163-16,16
	S314.845,479.362,323.681,479.362z"/>
<path d="M291.681,415.362h16v16h-16V415.362z"/>
<path d="M147.681,319.362h48v16h-48V319.362z"/>
<path d="M59.681,487.362h368c4.418,0.018,8.014-3.549,8.032-7.967c0.001-0.251-0.01-0.502-0.032-0.753l-18.736-205.8
	c-3.219-37.164-34.409-65.644-71.712-65.48h-53.552v-22.064c10.259-11.632,15.945-26.594,16-42.104v-32.632
	c0.637-0.296,1.254-0.633,1.848-1.008c3.892-3.016,6.165-7.668,6.152-12.592V81.426c-0.004-5.702-3.055-10.968-8-13.808V35.434
	c-0.036-10.705-7.125-20.104-17.408-23.08l-40-11.424c-4.31-1.24-8.882-1.24-13.192,0l-40,11.424
	c-10.279,2.979-17.365,12.378-17.4,23.08v32.184c-4.945,2.84-7.996,8.105-8,13.808v15.536c-0.018,4.93,2.255,9.588,6.152,12.608
	c0.589,0.421,1.207,0.8,1.848,1.136v32.52c0.055,15.51,5.741,30.472,16,42.104v22.032h-53.552
	c-37.304-0.16-68.494,28.322-71.712,65.488L51.681,478.642c-0.398,4.4,2.847,8.29,7.247,8.688
	C59.179,487.352,59.43,487.363,59.681,487.362L59.681,487.362z M68.481,471.362l8-88h39.2v17.472c-2.562-0.948-5.268-1.445-8-1.472
	c-13.255,0-24,10.745-24,24v48H68.481z M227.681,303.362h32v80h-32V303.362z M275.681,399.362v-96h80v136h-32
	c-13.255,0-24,10.745-24,24c0.027,2.732,0.524,5.438,1.472,8H186.209c0.947-2.562,1.445-5.268,1.472-8c0-13.255-10.745-24-24-24h-32
	v-136h80v96H275.681z M155.681,471.362h-56v-48c0-4.418,3.582-8,8-8s8,3.582,8,8v32h48c4.418,0,8,3.582,8,8s-3.582,8-8,8H155.681z
	 M323.681,471.362c-4.418,0-8-3.582-8-8s3.582-8,8-8h48v-32c0-4.418,3.582-8,8-8s8,3.582,8,8v48H323.681z M403.681,471.362v-48
	c0-13.255-10.745-24-24-24c-2.732,0.027-5.438,0.524-8,1.472v-17.472h39.24l8,88H403.681z M211.681,198.602
	c0.088,0.056,0.16,0.12,0.248,0.168c19.689,11.189,43.815,11.189,63.504,0c0.088-0.048,0.16-0.112,0.248-0.168v14.192l-32,44.8
	l-32-44.8V198.602z M267.497,184.874c-23.016,13.153-52.338,5.158-65.491-17.859c-4.146-7.255-6.326-15.466-6.325-23.821v-31.768
	l16.96-4.24c20.384-5.084,41.704-5.084,62.088,0l16.952,4.24v31.768C291.663,160.415,282.439,176.312,267.497,184.874z
	 M189.281,103.362l-1.6-6.4V81.426l24.96-6.24c20.381-5.088,41.699-5.088,62.08,0l24.96,6.24v15.536l-21.072-5.264
	c-22.932-5.716-46.916-5.716-69.848,0l-21.08,5.264L189.281,103.362z M201.473,27.738l40-11.432c1.432-0.412,2.952-0.412,4.384,0
	l40,11.424c3.447,0.974,5.827,4.122,5.824,7.704V62.93l-13.072-3.264c-22.935-5.716-46.921-5.716-69.856,0l-13.072,3.264V35.434
	c-0.002-3.573,2.365-6.714,5.8-7.696H201.473z M142.129,223.362h57.432l37.6,52.648c2.839,3.596,8.055,4.211,11.652,1.372
	c0.509-0.402,0.97-0.863,1.372-1.372l37.616-52.648h57.432c29.012-0.125,53.27,22.024,55.776,50.928l8.456,93.072h-37.784v-80h-256
	v80H77.897l8.456-93.064C88.856,245.391,113.114,223.237,142.129,223.362L142.129,223.362z"/>
<path d="M323.681,415.362h16v16h-16V415.362z"/>
<g>
</g>
<g>
</g>
<g>
</g>
<g>
</g>
<g>
</g>
<g>
</g>
<g>
</g>
<g>
</g>
<g>
</g>
<g>
</g>
<g>
</g>
<g>
</g>
<g>
</g>
<g>
</g>
<g>
</g>
</svg>
