<?xml version="1.0" encoding="iso-8859-1"?>
<!-- Generator: Adobe Illustrator 19.0.0, SVG Export Plug-In . SVG Version: 6.00 Build 0)  -->
<svg version="1.1" id="Capa_1" xmlns="http://www.w3.org/2000/svg" xmlns:xlink="http://www.w3.org/1999/xlink" x="0px" y="0px"
	 viewBox="0 0 480 480" style="enable-background:new 0 0 480 480;" xml:space="preserve">
<g>
	<path style="fill:#A9BFD1;" d="M176,244.015c-4.418,0-8-3.582-8-8s3.582-8,8-8c13.255,0,24-10.745,24-24s-10.745-24-24-24
		c-4.418,0-8-3.582-8-8s3.582-8,8-8c22.091,0,40,17.909,40,40S198.091,244.015,176,244.015z"/>
	<path style="fill:#A9BFD1;" d="M280,188.015c-2.122,0-4.156-0.844-5.656-2.344L184,95.327v76.688c0,4.418-3.582,8-8,8s-8-3.582-8-8
		v-96c0.001-4.418,3.583-7.999,8.002-7.998c2.121,0,4.155,0.843,5.654,2.342l104,104c3.124,3.125,3.123,8.19-0.002,11.314
		C284.155,187.172,282.121,188.015,280,188.015z"/>
</g>
<path style="fill:#7D8F9F;" d="M264,164.015v104h72v-48c0.001-27.697-20.023-51.336-47.344-55.888L288,164.015H264z"/>
<path style="fill:#5A6570;" d="M296,212.095c-1.014-0.003-2.019-0.198-2.96-0.576c-0.727-0.294-1.409-0.69-2.024-1.176
	c-3.472-2.776-4.036-7.84-1.26-11.312c1.148-1.436,2.753-2.435,4.548-2.832c1.578-0.336,3.219-0.2,4.72,0.392
	c0.333,0.135,0.657,0.292,0.968,0.472c0.371,0.208,0.724,0.446,1.056,0.712c2.963,2.369,3.87,6.485,2.176,9.88
	c-0.227,0.43-0.495,0.837-0.8,1.216C300.906,210.893,298.528,212.086,296,212.095L296,212.095z M288.912,200.503l6.936,3.464
	L288.912,200.503z"/>
<path style="fill:#C63846;" d="M0,148.015h16l40,40l73.72-26.576l38.08,96.816L0,319.311V148.015z"/>
<path style="fill:#124375;" d="M408,164.015v96H216v104h264v-200H408z"/>
<path style="fill:#A9BFD1;" d="M472,412.015H8c-4.418,0-8-3.582-8-8s3.582-8,8-8h464c4.418,0,8,3.582,8,8
	S476.418,412.015,472,412.015z"/>
<circle style="fill:#484D51;" cx="312" cy="364.015" r="40"/>
<circle style="fill:#7D8F9F;" cx="312" cy="364.015" r="16"/>
<circle style="fill:#B9D2ED;" cx="312" cy="364.015" r="8"/>
<circle style="fill:#484D51;" cx="64" cy="292.015" r="40"/>
<circle style="fill:#7D8F9F;" cx="64" cy="292.015" r="16"/>
<g>
	<path style="fill:#D1E3EE;" d="M156.856,228.191l-25.064,9.12l10.944,30.064l25.064-9.12c7.305-3.51,10.445-12.23,7.056-19.592
		C172.72,230.845,164.708,226.184,156.856,228.191z"/>
	<path style="fill:#D1E3EE;" d="M213.336,332.015H240v32h-26.664c-8.068-0.798-14.004-7.92-13.336-16
		C199.332,339.935,205.268,332.813,213.336,332.015z"/>
</g>
<circle cx="311.992" cy="363.975" r="8"/>
<path d="M299.064,196.511c-3.379-1.343-7.239-0.258-9.424,2.648c-0.518,0.685-0.921,1.449-1.192,2.264
	c-1.045,3.19-0.007,6.694,2.608,8.8c0.235,0.189,0.481,0.366,0.736,0.528c0.412,0.252,0.842,0.471,1.288,0.656
	c0.953,0.389,1.971,0.595,3,0.608c0.578-0.001,1.155-0.063,1.72-0.184c1.881-0.419,3.55-1.497,4.704-3.04
	c0.244-0.317,0.46-0.655,0.648-1.008l0.112-0.216c1.678-3.397,0.774-7.503-2.176-9.88
	C300.473,197.201,299.791,196.805,299.064,196.511L299.064,196.511z"/>
<path d="M61.08,284.487c-3.942,1.597-5.97,5.976-4.64,10.016c0.121,0.356,0.265,0.703,0.432,1.04c1.369,2.721,4.153,4.441,7.2,4.448
	c0.857-0.001,1.708-0.141,2.52-0.416c3.753-1.255,6.044-5.046,5.408-8.952c-0.136-0.786-0.384-1.548-0.736-2.264
	C69.376,284.636,64.965,282.959,61.08,284.487z"/>
<path d="M472,172.015c4.418,0,8-3.582,8-8s-3.582-8-8-8h-64c-4.418,0-8,3.582-8,8v88h-56v-32
	c0.013-31.863-23.197-58.982-54.68-63.888c-0.436-0.073-0.878-0.111-1.32-0.112h-20.656l-85.656-85.656
	c-3.107-3.141-8.172-3.169-11.314-0.063c-1.527,1.51-2.383,3.571-2.374,5.719v96c0,4.418,3.582,8,8,8
	c13.224-0.024,23.964,10.676,23.988,23.9c0.023,12.606-9.732,23.071-22.308,23.932c-4.454-5.461-11.223-8.501-18.264-8.2
	l-22.176-60.936c-1.504-4.148-6.081-6.295-10.232-4.8l-68.912,24.856l-36.408-36.408c-1.508-1.508-3.555-2.352-5.688-2.344H8
	c-4.418,0-8,3.582-8,8s3.582,8,8,8h4.72l37.68,37.656c2.193,2.19,5.453,2.916,8.368,1.864l66.224-23.864l19.16,52.648l-15.04,5.48
	c-4.155,1.503-6.304,6.09-4.801,10.244c0,0.001,0.001,0.002,0.001,0.004l8.184,22.496l-25.296,9
	c-10.41-22.477-36.329-33.2-59.576-24.648c-24.888,9.095-37.721,36.617-28.688,61.528c9.143,24.883,36.726,37.644,61.609,28.501
	c20.607-7.572,33.451-28.159,31.191-49.997l33.736-12h0.064l25.048-9.12c8.976-3.718,14.394-12.941,13.272-22.592
	c21.658-4.356,35.683-25.445,31.327-47.102c-3.167-15.747-15.447-28.073-31.183-31.298V95.327l72,72v84.688h-40
	c-4.418,0-8,3.582-8,8l0,0v64.848c-9.846,3.356-16.342,12.755-16,23.152c-0.679,12.497,8.838,23.206,21.328,24h51.392
	c1.514,8.938,5.537,17.261,11.6,24H8c-4.418,0-8,3.582-8,8s3.582,8,8,8h464c4.418,0,8-3.582,8-8s-3.582-8-8-8H347.712
	c6.063-6.739,10.086-15.062,11.6-24H472c4.418,0,8-3.582,8-8s-3.582-8-8-8H359.312c-4.392-26.112-29.12-43.72-55.232-39.328
	c-20.151,3.389-35.939,19.177-39.328,39.328H248v-24c0-4.418-3.582-8-8-8h-16v-56h248c4.418,0,8-3.582,8-8s-3.582-8-8-8h-56v-80H472
	z M74.992,322.079c-16.609,6.003-34.945-2.547-41.024-19.128c-6.043-16.608,2.521-34.97,19.129-41.013
	c16.608-6.043,34.97,2.521,41.013,19.129c6.043,16.607-2.52,34.968-19.126,41.012H74.992z M165.088,250.743l-17.536,6.4
	l-5.472-15.048l15.024-5.48l2.496-0.912c2.4-0.856,6.144,1.264,7.752,5.696S167.464,249.871,165.088,250.743L165.088,250.743z
	 M312,332.015c17.673,0,32,14.327,32,32s-14.327,32-32,32s-32-14.327-32-32S294.327,332.015,312,332.015z M232,356.015h-18.64
	c-2.52,0-5.328-3.288-5.328-8s2.808-8,5.328-8H232V356.015z M272,172.015h15.336c23.496,3.855,40.723,24.19,40.664,48v32h-56
	V172.015z"/>
<g>
</g>
<g>
</g>
<g>
</g>
<g>
</g>
<g>
</g>
<g>
</g>
<g>
</g>
<g>
</g>
<g>
</g>
<g>
</g>
<g>
</g>
<g>
</g>
<g>
</g>
<g>
</g>
<g>
</g>
</svg>
