<?xml version="1.0" encoding="iso-8859-1"?>
<!-- Generator: Adobe Illustrator 19.0.0, SVG Export Plug-In . SVG Version: 6.00 Build 0)  -->
<svg version="1.1" id="Capa_1" xmlns="http://www.w3.org/2000/svg" xmlns:xlink="http://www.w3.org/1999/xlink" x="0px" y="0px"
	 viewBox="0 0 512.002 512.002" style="enable-background:new 0 0 512.002 512.002;" xml:space="preserve">
<path style="fill:#B3B3B3;" d="M91.001,127.5c-8.836,0-16,7.163-16,16v26.667h32V143.5C107.001,134.663,99.838,127.5,91.001,127.5z"
	/>
<path style="fill:#808080;" d="M212.001,247.5l15,90c24.853,0,45-20.147,45-45L212.001,247.5z"/>
<path style="fill:#999999;" d="M182.001,292.5c0,24.853,20.147,45,45,45v-90L182.001,292.5z"/>
<polygon style="fill:#DBF4FF;" points="257.001,172.5 227.001,172.488 197.001,232.494 227.001,292.489 257.001,292.5 
	272.001,232.5 "/>
<polygon style="fill:#FFFFFF;" points="227.001,172.488 197.001,172.5 182.001,232.5 197.001,292.5 227.001,292.488 "/>
<g>
	<path style="fill:#2DADE3;" d="M187.007,172.5c-11.046,0-20,8.954-20,20l-0.006,160h30v-180H187.007z"/>
	<path style="fill:#2DADE3;" d="M267.001,172.5h-10v180h30v-160C287.001,181.455,278.047,172.5,267.001,172.5z"/>
</g>
<polygon style="fill:#A8E5FF;" points="137.001,277.5 107.001,277.5 77.001,225 107.001,157.5 137.001,157.5 "/>
<polygon style="fill:#DBF4FF;" points="107.001,187.5 75.001,157.5 45.001,157.5 45.001,277.5 107.001,277.5 "/>
<rect x="75" y="157.5" style="fill:#808080;" width="32" height="30"/>
<polygon style="fill:#4F4F4F;" points="362.501,322.5 407.501,402.5 437.501,402.5 437.501,342.5 "/>
<g>
	<polygon style="fill:#696969;" points="317.501,342.5 317.501,402.5 407.501,402.5 407.501,322.5 	"/>
	<polygon style="fill:#696969;" points="407.501,312.5 372.501,327.5 407.501,342.5 437.501,342.5 437.501,312.5 	"/>
</g>
<rect x="317.5" y="312.5" style="fill:#808080;" width="90" height="30"/>
<path style="fill:#FFB4A9;" d="M254.001,61.5h-27v81c24.85,0,45-20.15,45-45C272.001,82.78,264.931,69.7,254.001,61.5z"/>
<path style="fill:#FFD9D4;" d="M240.201,76.14c1.15,6.36,1.8,13.63,1.8,21.36c0,24.85-6.72,45-15,45c-24.85,0-45-20.15-45-45
	L240.201,76.14z"/>
<path style="fill:#40211D;" d="M254.001,61.5c-4.04,5.38-8.67,10.29-13.8,14.64l-13.2-23.64
	C237.121,52.5,246.481,55.85,254.001,61.5z"/>
<path style="fill:#60312C;" d="M182.001,97.5c0-24.85,20.15-45,45-45c5.7,0,10.67,9.56,13.2,23.64
	C224.511,89.46,204.191,97.5,182.001,97.5z"/>
<circle style="fill:#A45E43;" cx="392" cy="97.5" r="90"/>
<path style="fill:#DBF4FF;" d="M392.001,37.5v120c33.084,0,60-26.916,60-60S425.085,37.5,392.001,37.5z"/>
<path style="fill:#FFFFFF;" d="M422.001,97.5c0-33.084-13.458-60-30-60c-33.084,0-60,26.916-60,60s26.916,60,60,60
	C408.543,157.5,422.001,130.584,422.001,97.5z"/>
<path d="M437.501,305h-22.5v-22.5c0-4.142-3.358-7.5-7.5-7.5h-23.286c-3.678-48.122-42.446-86.577-90.699-89.777
	C290.317,173.581,279.646,165,267.001,165h-80c-12.563,0-23.178,8.472-26.452,20h-16.048v-27.5c0-4.142-3.358-7.5-7.5-7.5h-22.5
	v-6.5c0-12.958-10.542-23.5-23.5-23.5s-23.5,10.542-23.5,23.5v6.5h-22.5c-4.142,0-7.5,3.358-7.5,7.5V210h-7.5
	c-4.142,0-7.5,3.358-7.5,7.5s3.358,7.5,7.5,7.5h7.5v52.5c0,4.142,3.358,7.5,7.5,7.5h92c4.142,0,7.5-3.358,7.5-7.5V200h15v92.5
	c0,4.142,3.358,7.5,7.5,7.5s7.5-3.358,7.5-7.5v-100c0-6.893,5.607-12.5,12.5-12.5h2.5v145.726c0,0.044,0,19.274,0,19.274h-15v-22.5
	c0-4.142-3.358-7.5-7.5-7.5s-7.5,3.358-7.5,7.5v30c0,4.142,3.358,7.5,7.5,7.5h22.5v129.094l-24.872,8.291
	c-3.93,1.31-6.053,5.557-4.744,9.487c1.048,3.143,3.974,5.13,7.114,5.13c0.786,0,1.586-0.125,2.373-0.387l30-10
	c3.062-1.021,5.128-3.887,5.128-7.115V339.929c6.972,3.308,14.64,5.071,22.5,5.071s15.528-1.762,22.5-5.071V494.5
	c0,3.228,2.066,6.094,5.128,7.115l30,10c0.787,0.262,1.586,0.387,2.373,0.387c3.14,0,6.066-1.988,7.114-5.13
	c1.31-3.93-0.814-8.177-4.744-9.487l-24.872-8.291V360h22.5c4.142,0,7.5-3.358,7.5-7.5V200.357
	c39.515,3.58,71.064,35.129,74.644,74.644h-21.644c-4.142,0-7.5,3.358-7.5,7.5V305h-22.5c-4.142,0-7.5,3.358-7.5,7.5v90
	c0,4.142,3.358,7.5,7.5,7.5h120c4.142,0,7.5-3.358,7.5-7.5v-90C445.001,308.358,441.643,305,437.501,305z M82.501,143.5
	c0-4.687,3.813-8.5,8.5-8.5s8.5,3.813,8.5,8.5v6.5h-17V143.5z M82.501,165h17v15h-17V165z M129.501,270h-77v-45h7.5
	c4.142,0,7.5-3.358,7.5-7.5s-3.358-7.5-7.5-7.5h-7.5v-45h15v22.5c0,4.142,3.358,7.5,7.5,7.5h32c4.142,0,7.5-3.358,7.5-7.5V165h15
	V270z M219.501,180v82.488c0,4.142,3.358,7.5,7.5,7.5s7.5-3.358,7.5-7.5V180h15v105h-45V180H219.501z M227.001,330
	c-8.16,0-16.034-2.646-22.5-7.503V300h45v22.497C243.034,327.354,235.161,330,227.001,330z M279.501,345h-15V180h2.5
	c6.893,0,12.5,5.607,12.5,12.5V345z M355.001,290h45v15h-45V290z M430.001,320v15h-105v-15H430.001z M325.001,395v-45h45v7.5
	c0,4.142,3.358,7.5,7.5,7.5s7.5-3.358,7.5-7.5V350h45v45H325.001z"/>
<path d="M227.001,150c28.949,0,52.5-23.551,52.5-52.5S255.95,45,227.001,45s-52.5,23.551-52.5,52.5S198.052,150,227.001,150z
	 M264.501,97.5c0,20.678-16.822,37.5-37.5,37.5c-18.229,0-33.454-13.076-36.806-30.34c25.031-2.055,47.915-13.495,64.607-32.299
	C260.826,79.017,264.501,87.837,264.501,97.5z M227.001,60c5.583,0,10.88,1.235,15.646,3.433
	C228.93,78.368,210.504,87.58,190.35,89.58C193.996,72.694,209.041,60,227.001,60z"/>
<path d="M392.001,0c-53.762,0-97.5,43.738-97.5,97.5s43.738,97.5,97.5,97.5s97.5-43.738,97.5-97.5S445.763,0,392.001,0z
	 M392.001,180c-45.491,0-82.5-37.009-82.5-82.5S346.51,15,392.001,15s82.5,37.009,82.5,82.5S437.492,180,392.001,180z"/>
<path d="M392.001,30c-37.22,0-67.5,30.28-67.5,67.5s30.28,67.5,67.5,67.5s67.5-30.28,67.5-67.5S429.221,30,392.001,30z M392.001,150
	c-28.949,0-52.5-23.551-52.5-52.5s23.551-52.5,52.5-52.5s52.5,23.551,52.5,52.5S420.95,150,392.001,150z"/>
<path d="M422.001,90h-22.5V67.5c0-4.142-3.358-7.5-7.5-7.5s-7.5,3.358-7.5,7.5v30c0,4.142,3.358,7.5,7.5,7.5h30
	c4.142,0,7.5-3.358,7.5-7.5S426.143,90,422.001,90z"/>
<g>
</g>
<g>
</g>
<g>
</g>
<g>
</g>
<g>
</g>
<g>
</g>
<g>
</g>
<g>
</g>
<g>
</g>
<g>
</g>
<g>
</g>
<g>
</g>
<g>
</g>
<g>
</g>
<g>
</g>
</svg>
