<?xml version="1.0" encoding="iso-8859-1"?>
<!-- Generator: Adobe Illustrator 19.0.0, SVG Export Plug-In . SVG Version: 6.00 Build 0)  -->
<svg version="1.1" id="Capa_1" xmlns="http://www.w3.org/2000/svg" xmlns:xlink="http://www.w3.org/1999/xlink" x="0px" y="0px"
	 viewBox="0 0 480.281 480.281" style="enable-background:new 0 0 480.281 480.281;" xml:space="preserve">
<g>
	<path style="fill:#C7C7C7;" d="M432.281,392.14c-17.6,0-32-14.4-32-32v-104c0-8.8-7.2-16-16-16h-24v-16h24c17.6,0,32,14.4,32,32
		v104c0,8.8,7.2,16,16,16s16-7.2,16-16v-168h16v168C464.281,377.74,449.881,392.14,432.281,392.14z"/>
	<path style="fill:#C7C7C7;" d="M425.881,108.94l-29.6-36.8h-44v-16h48c2.4,0,4.8,0.8,6.4,3.2l32,40L425.881,108.94z"/>
	<path style="fill:#C7C7C7;" d="M433.881,196.94l-38.4-44.8c-8-9.6-7.2-24,1.6-32.8l13.6-13.6l11.2,11.2l-13.6,14.4
		c-3.2,3.2-3.2,8-0.8,11.2l38.4,44.8L433.881,196.94z"/>
</g>
<g>
	<path style="fill:#DE4C3C;" d="M120.281,424.14h240v-384c0-17.6-14.4-32-32-32h-176c-17.6,0-32,14.4-32,32V424.14z"/>
	<path style="fill:#DE4C3C;" d="M472.281,200.14h-32c-4.8,0-8-3.2-8-8v-45.6l-26.4-35.2l28.8-28.8c3.2-3.2,8.8-3.2,12,0.8l33.6,42.4
		v66.4C480.281,196.94,477.081,200.14,472.281,200.14z"/>
</g>
<path style="fill:#87CED9;" d="M160.281,48.14h160v128h-160V48.14z"/>
<path style="fill:#4398D1;" d="M299.481,229.74l-147.2-13.6l-32-39.2l-62.4-76.8c-6.4-8-15.2-12-24.8-12h-32.8v296h328v-122.4
	C328.281,244.94,315.481,231.34,299.481,229.74z"/>
<path style="fill:#3E8CC7;" d="M240.281,328.14c-16,0-30.4-9.6-36.8-24H0.281v80h328v-80h-51.2
	C270.681,318.54,256.281,328.14,240.281,328.14L240.281,328.14z"/>
<path style="fill:#DEDEDE;" d="M104.281,424.14h288v48h-288V424.14z"/>
<path style="fill:#5E5E5F;" d="M96.281,296.14c-48.8,0-88,40-88,88c0,45.6,34.4,83.2,80,87.2h8c48.8,0,88-39.2,88-88
	S145.081,296.14,96.281,296.14z"/>
<circle style="fill:#EBEBEB;" cx="96.281" cy="384.14" r="48"/>
<path style="fill:#565657;" d="M144.281,310.54c-4.8,12.8-10.4,25.6-16.8,37.6c19.2,18.4,20.8,48.8,2.4,68
	c-16.8,18.4-44.8,20-64.8,4.8c-11.2,8-22.4,16-34.4,22.4c15.2,16,35.2,26.4,56.8,28.8h8c48.8,0,88-39.2,88-88
	C184.281,354.54,169.081,326.54,144.281,310.54L144.281,310.54z"/>
<path style="fill:#DEDEDE;" d="M65.881,420.94c20.8,16,51.2,12.8,67.2-8c15.2-19.2,13.6-48-4.8-64.8
	C112.281,376.14,91.481,400.94,65.881,420.94L65.881,420.94z"/>
<path style="fill:#87CED9;" d="M29.081,136.14c-3.2-4.8-8-8-13.6-8h-15.2v104h88L29.081,136.14z"/>
<circle style="fill:#2A7DB8;" cx="240.281" cy="288.14" r="24"/>
<ellipse style="fill:#87CED9;" cx="280.281" cy="288.14" rx="16" ry="24"/>
<g>
	<path style="fill:#71C4D1;" d="M0.281,204.14v28h88l-44-72L0.281,204.14z"/>
	<path style="fill:#71C4D1;" d="M184.281,176.14h136v-128h-8L184.281,176.14z"/>
</g>
<path style="fill:#FA962A;" d="M240.281,80.14l-19.2,30.4c-6.4,10.4-3.2,24,7.2,30.4c4,2.4,8,3.2,12,3.2c12,0,22.4-9.6,22.4-22.4
	c0-4-0.8-8-3.2-12L240.281,80.14z"/>
<path d="M446.681,83.34c-2.4-3.2-8-4-11.2-1.6c0,0-0.8,0-0.8,0.8l-5.6,5.6l-23.2-28.8c-0.8-2.4-3.2-3.2-5.6-3.2h-32v-16
	c0-22.4-17.6-40-40-40h-176c-22.4,0-40,17.6-40,40v80h16v-80c0-13.6,10.4-24,24-24h176c13.6,0,24,10.4,24,24v376h-152v16h184v32
	h-208v16h216c4.8,0,8-3.2,8-8v-48c0-4.8-3.2-8-8-8h-24v-176h16c8.8,0,16,7.2,16,16v104c0,17.6,14.4,32,32,32s32-14.4,32-32v-160h8
	c4.8,0,8-3.2,8-8v-64c0-1.6-0.8-3.2-1.6-4.8L446.681,83.34z M448.281,360.14c0,8.8-7.2,16-16,16s-16-7.2-16-16v-104
	c0-17.6-14.4-32-32-32h-16v-152h28l21.6,27.2l-7.2,7.2l-13.6,13.6c-8.8,8.8-9.6,23.2-1.6,32.8l38.4,44.8c1.6,1.6,4,3.2,5.6,3.2h8
	v159.2H448.281z M432.281,146.54v24l-24-28c-2.4-3.2-2.4-8,0.8-11.2l7.2-7.2L432.281,146.54z M464.281,184.14h-16v-40
	c0-1.6-0.8-3.2-1.6-4.8l-20-26.4l12.8-12.8l24.8,31.2L464.281,184.14z"/>
<path d="M320.281,184.14c4.8,0,8-3.2,8-8v-128c0-4.8-3.2-8-8-8h-160c-4.8,0-8,3.2-8,8v128c0,4.8,3.2,8,8,8H320.281z M168.281,56.14
	h144v112h-144V56.14z"/>
<path d="M246.681,76.14c-2.4-4-8-4.8-11.2-2.4c-0.8,0.8-1.6,1.6-2.4,2.4l-18.4,30.4c-8.8,14.4-4.8,32.8,9.6,41.6s32.8,4.8,41.6-9.6
	c6.4-9.6,6.4-22.4,0-32L246.681,76.14z M252.281,128.94c-4,7.2-12.8,9.6-19.2,5.6c-7.2-4-9.6-12.8-5.6-19.2c0,0,0,0,0-0.8l12-19.2
	l12,19.2C254.681,118.54,255.481,124.14,252.281,128.94z"/>
<path d="M85.081,479.34c0.8,0.8,2.4,0.8,3.2,0.8h8c49.6,0,91.2-38.4,95.2-88h136.8c4.8,0,8-3.2,8-8v-122.4c0-20.8-16-38.4-36-40
	l-144-13.6l-92-113.6c-8-8.8-19.2-14.4-31.2-14.4h-32.8v16h32.8c7.2,0,14.4,3.2,18.4,8.8l94.4,116c1.6,1.6,3.2,2.4,5.6,3.2
	l147.2,13.6c12,0.8,21.6,11.2,21.6,24v114.4h-128.8c-4-52.8-50.4-92-103.2-88s-92,51.2-88,104
	C4.281,437.74,39.481,473.74,85.081,479.34L85.081,479.34z M96.281,304.14c44,0,80,36,80,80s-36,80-80,80c-2.4,0-4.8,0-7.2,0
	c-44-4-76-43.2-72-87.2C21.081,335.34,55.481,304.14,96.281,304.14z"/>
<path d="M96.281,440.14c31.2,0,56-24.8,56-56s-24.8-56-56-56s-56,24.8-56,56S65.081,440.14,96.281,440.14z M96.281,344.14
	c22.4,0,40,17.6,40,40s-17.6,40-40,40s-40-17.6-40-40S73.881,344.14,96.281,344.14z"/>
<path d="M95.481,236.14c1.6-2.4,1.6-5.6,0-8l-59.2-96c-4.8-8-12.8-12-20.8-12h-15.2v16h15.2c2.4,0,5.6,1.6,7.2,4l51.2,84h-73.6v16
	h88C91.481,240.14,93.881,238.54,95.481,236.14z"/>
<path d="M262.681,310.54c4,5.6,10.4,9.6,17.6,9.6c13.6,0,24-14.4,24-32s-10.4-32-24-32c-7.2,0-13.6,4-17.6,9.6
	c-12-12.8-32.8-12.8-45.6,0c-12.8,12-12.8,32.8,0,45.6C229.881,323.34,249.881,323.34,262.681,310.54L262.681,310.54z
	 M280.281,272.14c3.2,0,8,6.4,8,16s-4.8,16-8,16s-8-6.4-8-16S277.081,272.14,280.281,272.14z M224.281,288.14c0-8.8,7.2-16,16-16
	c8.8,0,16,7.2,16,16s-7.2,16-16,16S224.281,296.94,224.281,288.14z"/>
<g>
</g>
<g>
</g>
<g>
</g>
<g>
</g>
<g>
</g>
<g>
</g>
<g>
</g>
<g>
</g>
<g>
</g>
<g>
</g>
<g>
</g>
<g>
</g>
<g>
</g>
<g>
</g>
<g>
</g>
</svg>
