<?xml version="1.0" encoding="iso-8859-1"?>
<!-- Generator: Adobe Illustrator 19.0.0, SVG Export Plug-In . SVG Version: 6.00 Build 0)  -->
<svg version="1.1" id="Capa_1" xmlns="http://www.w3.org/2000/svg" xmlns:xlink="http://www.w3.org/1999/xlink" x="0px" y="0px"
	 viewBox="0 0 512 512" style="enable-background:new 0 0 512 512;" xml:space="preserve">
<path style="fill:#80C4EC;" d="M380.688,256c0-6.88-0.561-13.632-1.638-20.212h-74.248l52.462-52.456
	c-7.919-11.002-17.585-20.666-28.587-28.584l-52.462,52.456v-74.241c-6.581-1.077-13.333-1.638-20.215-1.638
	c-6.881,0-13.633,0.561-20.214,1.638v74.241l-52.462-52.456c-11.003,7.918-20.668,17.583-28.587,28.584l52.462,52.456H132.95
	c-1.077,6.58-1.638,13.332-1.638,20.212s0.561,13.632,1.638,20.212h74.248l-52.462,52.456c7.919,11.002,17.584,20.666,28.587,28.584
	l52.462-52.456v74.241c6.581,1.077,13.333,1.638,20.214,1.638s13.634-0.561,20.215-1.638v-74.241l52.462,52.456
	c11.002-7.918,20.668-17.583,28.587-28.584l-52.462-52.456h74.248C380.127,269.632,380.688,262.88,380.688,256z"/>
<path style="fill:#828AA0;" d="M256,10.027C120.138,10.027,10,120.153,10,256s110.138,245.973,246,245.973S502,391.847,502,256
	S391.862,10.027,256,10.027z M256,431.167c-96.598,0-175.186-78.58-175.186-175.167S159.402,80.833,256,80.833
	S431.186,159.413,431.186,256S352.598,431.167,256,431.167z"/>
<path d="M256,511.973c-68.38,0-132.667-26.625-181.019-74.972C26.629,388.653,0,324.373,0,256S26.629,123.346,74.981,74.999
	C123.333,26.653,187.62,0.027,256,0.027s132.667,26.625,181.019,74.972S512,187.627,512,256s-26.629,132.653-74.981,181
	S324.38,511.973,256,511.973z M256,20.027C125.869,20.027,20,125.884,20,256s105.869,235.973,236,235.973S492,386.116,492,256
	S386.131,20.027,256,20.027z M256,441.168c-102.112,0-185.186-83.066-185.186-185.168S153.888,70.832,256,70.832
	S441.186,153.898,441.186,256S358.112,441.168,256,441.168z M256,90.832c-91.084,0-165.186,74.094-165.186,165.168
	S164.916,421.168,256,421.168S421.186,347.074,421.186,256S347.084,90.832,256,90.832z"/>
<path style="fill:#DAE9EC;" d="M256,80.833c-96.598,0-175.186,78.58-175.186,175.167c0,96.588,78.588,175.167,175.186,175.167
	S431.187,352.587,431.187,256C431.186,159.413,352.598,80.833,256,80.833z M256,380.675c-68.753,0-124.688-55.929-124.688-124.675
	S187.247,131.325,256,131.325S380.688,187.254,380.688,256S324.753,380.675,256,380.675z"/>
<path d="M256,474.616c-120.559,0-218.64-98.071-218.64-218.616S135.441,37.384,256,37.384c50.243,0,99.343,17.534,138.256,49.371
	c38.364,31.388,65.185,75.17,75.521,123.282c1.159,5.4-2.277,10.717-7.677,11.877c-5.401,1.166-10.717-2.277-11.878-7.676
	C430.697,123.351,349.015,57.384,256,57.384C146.47,57.384,57.36,146.482,57.36,256S146.47,454.616,256,454.616
	c5.522,0,10,4.477,10,10S261.522,474.616,256,474.616z M464.649,266c-5.522,0-10.005-4.477-10.005-10c0-5.523,4.473-10,9.995-10
	h0.01c5.523,0,10,4.477,10,10C474.649,261.523,470.173,266,464.649,266z"/>
<ellipse style="fill:#CCECFC;" cx="256" cy="256" rx="49.1" ry="49.1"/>
<path d="M256,315.097c-32.589,0-59.102-26.511-59.102-59.097s26.514-59.097,59.102-59.097s59.103,26.511,59.103,59.097
	S288.589,315.097,256,315.097z M256,216.903c-21.561,0-39.102,17.539-39.102,39.097s17.541,39.097,39.102,39.097
	s39.103-17.539,39.103-39.097S277.561,216.903,256,216.903z"/>
<ellipse style="fill:#CCECFC;" cx="256" cy="256" rx="49.1" ry="49.1"/>
<path d="M256,121.325c-74.267,0-134.688,60.415-134.688,134.675S181.733,390.675,256,390.675S390.688,330.26,390.688,256
	S330.267,121.325,256,121.325z M355.58,199.156c4.75,8.287,8.495,17.22,11.068,26.632h-37.702L355.58,199.156z M343.962,182.492
	l-39.591,39.586c-3.944-5.606-8.837-10.499-14.444-14.443l39.59-39.586C334.747,172.427,339.583,177.262,343.962,182.492z
	 M256,295.097c-21.561,0-39.102-17.539-39.102-39.097s17.541-39.097,39.102-39.097s39.103,17.539,39.103,39.097
	S277.561,295.097,256,295.097z M286.215,145.363c9.414,2.573,18.348,6.318,26.636,11.068l-26.636,26.633V145.363z M256,141.325
	c3.442,0,6.849,0.153,10.215,0.451v56.011c-3.319-0.581-6.732-0.884-10.215-0.884s-6.896,0.303-10.215,0.884v-56.011
	C249.151,141.477,252.558,141.325,256,141.325z M225.785,145.363v37.701l-26.636-26.633
	C207.437,151.681,216.372,147.936,225.785,145.363z M182.483,168.048l39.59,39.586c-5.607,3.944-10.5,8.837-14.444,14.443
	l-39.591-39.586C172.417,177.262,177.253,172.427,182.483,168.048z M156.42,199.156l26.634,26.632h-37.702
	C147.925,216.376,151.67,207.443,156.42,199.156z M141.313,256c0-3.441,0.153-6.847,0.451-10.212h56.018
	c-0.581,3.318-0.883,6.731-0.883,10.212c0,3.482,0.303,6.894,0.883,10.212h-56.018C141.465,262.847,141.313,259.441,141.313,256z
	 M156.42,312.844c-4.75-8.287-8.495-17.22-11.068-26.632h37.702L156.42,312.844z M168.038,329.508l39.59-39.586
	c3.944,5.607,8.838,10.499,14.444,14.444l-39.59,39.585C177.253,339.573,172.417,334.738,168.038,329.508z M225.785,366.637
	c-9.414-2.573-18.348-6.318-26.636-11.068l26.636-26.633V366.637z M256,370.675c-3.442,0-6.849-0.153-10.215-0.451v-56.011
	c3.319,0.581,6.732,0.884,10.215,0.884s6.896-0.303,10.215-0.884v56.011C262.849,370.523,259.442,370.675,256,370.675z
	 M286.215,366.637v-37.701l26.636,26.633C304.563,360.319,295.628,364.064,286.215,366.637z M329.517,343.952l-39.59-39.585
	c5.607-3.944,10.5-8.837,14.444-14.444l39.59,39.586C339.583,334.738,334.747,339.573,329.517,343.952z M355.58,312.844
	l-26.634-26.632h37.702C364.075,295.624,360.33,304.557,355.58,312.844z M314.219,266.212c0.58-3.318,0.883-6.73,0.883-10.212
	s-0.303-6.894-0.883-10.212h56.017c0.298,3.365,0.451,6.771,0.451,10.212s-0.153,6.847-0.451,10.212H314.219z"/>
<path d="M256,70.832C153.888,70.832,70.813,153.898,70.813,256S153.888,441.168,256,441.168S441.186,358.102,441.186,256
	S358.112,70.832,256,70.832z M256,421.168c-91.084,0-165.186-74.094-165.186-165.168S164.916,90.832,256,90.832
	S421.186,164.926,421.186,256S347.084,421.168,256,421.168z"/>
<g>
</g>
<g>
</g>
<g>
</g>
<g>
</g>
<g>
</g>
<g>
</g>
<g>
</g>
<g>
</g>
<g>
</g>
<g>
</g>
<g>
</g>
<g>
</g>
<g>
</g>
<g>
</g>
<g>
</g>
</svg>
