<?xml version="1.0" encoding="iso-8859-1"?>
<!-- Generator: Adobe Illustrator 19.0.0, SVG Export Plug-In . SVG Version: 6.00 Build 0)  -->
<svg version="1.1" id="Capa_1" xmlns="http://www.w3.org/2000/svg" xmlns:xlink="http://www.w3.org/1999/xlink" x="0px" y="0px"
	 viewBox="0 0 512 512" style="enable-background:new 0 0 512 512;" xml:space="preserve">
<polyline style="fill:#828AA0;" points="218.808,115.461 29.554,115.461 29.554,175.874 177.677,175.874 "/>
<g>
	<polyline style="fill:#DAE9EC;" points="236.305,175.874 177.677,175.874 177.677,175.874 54.096,175.874 54.096,226.201 
		228.932,226.201 	"/>
	<polyline style="fill:#DAE9EC;" points="258.688,226.201 457.903,226.201 457.903,175.874 293.062,175.874 	"/>
</g>
<polyline style="fill:#CCECFC;" points="228.932,226.201 54.096,226.201 54.096,425.077 457.903,425.077 457.903,226.201 
	258.688,226.201 "/>
<g>
	<rect x="61.65" y="79.029" style="fill:#5796D1;" width="107.05" height="36.432"/>
	<rect x="343.3" y="79.029" style="fill:#5796D1;" width="107.05" height="36.432"/>
</g>
<rect x="308.2" y="306.499" style="fill:#F15D43;" width="103.83" height="35.87"/>
<path d="M412.032,352.367H308.198c-5.523,0-10-4.478-10-10v-35.87c0-5.522,4.477-10,10-10h103.834c5.523,0,10,4.478,10,10v35.87
	C422.032,347.889,417.555,352.367,412.032,352.367z M318.198,332.367h83.834v-15.87h-83.834V332.367z"/>
<polygon style="fill:#F15D43;" points="201.914,306.497 167.932,306.497 167.932,272.515 133.95,272.515 133.95,306.497 
	99.968,306.497 99.968,342.367 133.95,342.367 133.95,376.35 167.932,376.35 167.932,342.367 201.914,342.367 "/>
<path style="fill:#A9ADBF;" d="M10,464.922v17.454h492v-17.454c0-22.006-17.839-39.845-39.845-39.845H49.845
	C27.839,425.077,10,442.916,10,464.922z"/>
<polyline style="fill:#828AA0;" points="293.062,175.874 482.446,175.874 482.446,115.461 334.323,115.461 "/>
<path d="M404,386.348c-0.65,0-1.31-0.07-1.95-0.2c-0.64-0.12-1.27-0.319-1.88-0.569c-0.6-0.25-1.18-0.561-1.72-0.92
	c-0.55-0.36-1.06-0.78-1.52-1.24s-0.88-0.97-1.24-1.521c-0.36-0.54-0.67-1.12-0.92-1.72c-0.25-0.61-0.45-1.24-0.57-1.88
	c-0.13-0.64-0.2-1.3-0.2-1.95c0-0.649,0.07-1.31,0.2-1.95c0.12-0.64,0.32-1.27,0.57-1.87c0.25-0.609,0.56-1.19,0.92-1.73
	c0.36-0.55,0.78-1.06,1.24-1.52c1.86-1.859,4.44-2.93,7.07-2.93s5.21,1.07,7.07,2.93c0.46,0.461,0.88,0.971,1.24,1.52
	c0.36,0.54,0.67,1.12,0.92,1.73c0.25,0.601,0.45,1.23,0.57,1.87c0.13,0.641,0.2,1.301,0.2,1.95c0,0.65-0.07,1.311-0.2,1.95
	c-0.12,0.64-0.32,1.27-0.57,1.88c-0.25,0.6-0.56,1.18-0.92,1.72c-0.36,0.551-0.78,1.061-1.24,1.521
	C409.21,385.278,406.63,386.348,404,386.348z"/>
<polygon style="fill:#FEDA67;" points="224.307,257.778 236.305,175.874 177.677,175.874 277.25,29.622 287.286,33.73 
	275.367,115.461 334.323,115.461 234.434,261.713 "/>
<path d="M467.903,415.407V185.874h14.543c5.523,0,10-4.478,10-10v-60.413c0-5.522-4.477-10-10-10h-22.094V79.03
	c0-5.522-4.477-10-10-10H343.303c-5.523,0-10,4.478-10,10v26.432h-46.372l10.251-70.288c0.663-4.546-1.856-8.958-6.107-10.698
	l-10.036-4.108c-4.371-1.786-9.397-0.275-12.055,3.627l-55.466,81.467h-34.822V79.03c0-5.522-4.477-10-10-10H61.648
	c-5.523,0-10,4.478-10,10v26.431H29.554c-5.523,0-10,4.478-10,10v60.413c0,5.522,4.477,10,10,10h14.543v229.533
	C19.31,418.265,0,439.381,0,464.922v17.454c0,5.522,4.477,10,10,10h492c5.523,0,10-4.478,10-10v-17.454
	C512,439.381,492.69,418.265,467.903,415.407z M64.097,236.201h153.264l-2.949,20.128c-0.676,4.613,1.927,9.082,6.273,10.771
	l10.127,3.935c1.182,0.459,2.408,0.68,3.619,0.68c3.229,0,6.354-1.568,8.261-4.361l21.276-31.151h183.935v178.876H64.097V236.201z
	 M447.903,216.201H277.628l20.714-30.327h149.562L447.903,216.201L447.903,216.201z M472.446,165.874H312.001l27.602-40.413h132.843
	L472.446,165.874L472.446,165.874z M353.303,89.03h87.049v16.431h-87.049V89.03z M274.626,51.245l-9.155,62.773
	c-0.419,2.874,0.432,5.788,2.332,7.984c1.899,2.196,4.66,3.459,7.564,3.459h40.016L236.98,240.254l9.219-62.931
	c0.421-2.874-0.429-5.79-2.329-7.987c-1.899-2.198-4.661-3.462-7.566-3.462h-39.722L274.626,51.245z M71.648,89.03h87.049v16.431
	H71.648V89.03z M39.554,125.461h160.348l-27.515,40.413H39.554V125.461z M224.733,185.874l-4.443,30.327H64.097v-30.327H224.733z
	 M492,472.376H20v-7.454c0-16.456,13.388-29.845,29.845-29.845h412.311c16.457,0,29.845,13.389,29.845,29.845v7.454H492z"/>
<path d="M367.999,366.349H177.932v-13.982h23.982c5.523,0,10-4.478,10-10v-35.87c0-5.522-4.477-10-10-10h-23.982v-23.981
	c0-5.522-4.477-10-10-10H133.95c-5.523,0-10,4.478-10,10v23.981H99.968c-5.523,0-10,4.478-10,10v35.87c0,5.522,4.477,10,10,10
	h23.982v13.982H108c-5.523,0-10,4.478-10,10s4.477,10,10,10h259.999c5.523,0,10-4.478,10-10S373.522,366.349,367.999,366.349z
	 M143.95,366.349v-23.982c0-5.523-4.477-10-10-10h-23.982v-15.87h23.982c5.523,0,10-4.478,10-10v-23.981h13.982v23.981
	c0,5.522,4.477,10,10,10h23.982v15.87h-23.982c-5.523,0-10,4.477-10,10v23.982H143.95z"/>
<g>
</g>
<g>
</g>
<g>
</g>
<g>
</g>
<g>
</g>
<g>
</g>
<g>
</g>
<g>
</g>
<g>
</g>
<g>
</g>
<g>
</g>
<g>
</g>
<g>
</g>
<g>
</g>
<g>
</g>
</svg>
