<?xml version="1.0" encoding="iso-8859-1"?>
<!-- Generator: Adobe Illustrator 19.0.0, SVG Export Plug-In . SVG Version: 6.00 Build 0)  -->
<svg version="1.1" id="Capa_1" xmlns="http://www.w3.org/2000/svg" xmlns:xlink="http://www.w3.org/1999/xlink" x="0px" y="0px"
	 viewBox="0 0 496 496" style="enable-background:new 0 0 496 496;" xml:space="preserve">
<path style="fill:#F4C127;" d="M72,232V112c0-22.4,17.6-40,40-40h160c22.4,0,40,17.6,40,40v120H72z"/>
<path d="M312,240H72c-4.8,0-8-3.2-8-8V112c0-26.4,21.6-48,48-48h160c26.4,0,48,21.6,48,48v120C320,236.8,316.8,240,312,240z M80,224
	h224V112c0-17.6-14.4-32-32-32H112c-17.6,0-32,14.4-32,32V224z"/>
<path style="fill:#A63305;" d="M288,152h160c22.4,0,40,17.6,40,40v192c0,22.4-17.6,40-40,40H288c-22.4,0-40-17.6-40-40V192
	C248,169.6,265.6,152,288,152z"/>
<path d="M448,432H288c-26.4,0-48-21.6-48-48V192c0-26.4,21.6-48,48-48h160c26.4,0,48,21.6,48,48v192C496,410.4,474.4,432,448,432z
	 M288,160c-17.6,0-32,14.4-32,32v192c0,17.6,14.4,32,32,32h160c17.6,0,32-14.4,32-32V192c0-17.6-14.4-32-32-32H288z"/>
<path style="fill:#656A73;" d="M280,424v48c0,8.8,7.2,16,16,16l0,0c8.8,0,16-7.2,16-16v-48H280z"/>
<path d="M296,496c-13.6,0-24-10.4-24-24v-48c0-4.8,3.2-8,8-8h32c4.8,0,8,3.2,8,8v48C320,485.6,309.6,496,296,496z M288,432v40
	c0,4.8,3.2,8,8,8s8-3.2,8-8v-40H288z"/>
<path style="fill:#656A73;" d="M456,424v48c0,8.8-7.2,16-16,16l0,0c-8.8,0-16-7.2-16-16v-48H456z"/>
<path d="M440,496c-13.6,0-24-10.4-24-24v-48c0-4.8,3.2-8,8-8h32c4.8,0,8,3.2,8,8v48C464,485.6,453.6,496,440,496z M432,432v40
	c0,4.8,3.2,8,8,8s8-3.2,8-8v-40H432z"/>
<rect x="312" y="448" width="112" height="16"/>
<path style="fill:#656A73;" d="M328,8h80c8.8,0,16,7.2,16,16l0,0c0,8.8-7.2,16-16,16h-80c-8.8,0-16-7.2-16-16l0,0
	C312,15.2,319.2,8,328,8z"/>
<path d="M408,48h-80c-13.6,0-24-10.4-24-24s10.4-24,24-24h80c13.6,0,24,10.4,24,24S421.6,48,408,48z M328,16c-4.8,0-8,3.2-8,8
	s3.2,8,8,8h80c4.8,0,8-3.2,8-8s-3.2-8-8-8H328z"/>
<rect x="336" y="40" width="16" height="112"/>
<rect x="384" y="40" width="16" height="112"/>
<path d="M288,360h-16V200c0-13.6,10.4-24,24-24h144c13.6,0,24,10.4,24,24v40h-16v-40c0-4.8-3.2-8-8-8H296c-4.8,0-8,3.2-8,8V360z"/>
<path style="fill:#D87D0F;" d="M48,232h200l0,0v160l0,0H48c-22.4,0-40-17.6-40-40v-80C8,249.6,25.6,232,48,232z"/>
<path d="M248,400H48c-26.4,0-48-21.6-48-48v-80c0-26.4,21.6-48,48-48h200c4.8,0,8,3.2,8,8v160C256,396.8,252.8,400,248,400z M48,240
	c-17.6,0-32,14.4-32,32v80c0,17.6,14.4,32,32,32h192V240H48z"/>
<path d="M40,288H8v-16h32c4.8,0,8-3.2,8-8v-32h16v32C64,277.6,53.6,288,40,288z"/>
<path d="M64,392H48v-32c0-4.8-3.2-8-8-8H8v-16h32c13.6,0,24,10.4,24,24V392z"/>
<path d="M176,232h-16v-16c0-13.6-10.4-24-24-24s-24,10.4-24,24v16H96v-16c0-22.4,17.6-40,40-40s40,17.6,40,40V232z"/>
<rect x="104" y="264" style="fill:#A63305;" width="64" height="96"/>
<path d="M168,368h-64c-4.8,0-8-3.2-8-8v-96c0-4.8,3.2-8,8-8h64c4.8,0,8,3.2,8,8v96C176,364.8,172.8,368,168,368z M112,352h48v-80
	h-48V352z"/>
<rect x="104" y="288" width="64" height="16"/>
<rect x="128" y="160" width="16" height="104"/>
<path style="fill:#656A73;" d="M248,72v-8c0-31.2-24.8-56-56-56l0,0c-31.2,0-56,24.8-56,56v8h32v-8c0-13.6,10.4-24,24-24l0,0
	c13.6,0,24,10.4,24,24v8H248z"/>
<path d="M248,80h-32c-4.8,0-8-3.2-8-8v-8c0-8.8-7.2-16-16-16s-16,7.2-16,16v8c0,4.8-3.2,8-8,8h-32c-4.8,0-8-3.2-8-8v-8
	c0-35.2,28.8-64,64-64s64,28.8,64,64v8C256,76.8,252.8,80,248,80z M224,64h16c0-26.4-21.6-48-48-48s-48,21.6-48,48h16
	c0-17.6,14.4-32,32-32S224,46.4,224,64z"/>
<rect x="72" y="96" width="240" height="16"/>
<rect x="272" y="104" width="16" height="48"/>
<polygon style="fill:#D87D0F;" points="400,312 416,296 432,296 448,312 448,392 400,392 "/>
<path d="M448,400h-48c-4.8,0-8-3.2-8-8v-80c0-2.4,0.8-4,2.4-5.6l16-16c1.6-1.6,3.2-2.4,5.6-2.4h16c2.4,0,4,0.8,5.6,2.4l16,16
	c1.6,1.6,2.4,3.2,2.4,5.6v80C456,396.8,452.8,400,448,400z M408,384h32v-68.8L428.8,304h-9.6L408,315.2V384z"/>
<rect x="416" y="152" width="16" height="144"/>
<g>
</g>
<g>
</g>
<g>
</g>
<g>
</g>
<g>
</g>
<g>
</g>
<g>
</g>
<g>
</g>
<g>
</g>
<g>
</g>
<g>
</g>
<g>
</g>
<g>
</g>
<g>
</g>
<g>
</g>
</svg>
