<?xml version="1.0" encoding="iso-8859-1"?>
<!-- Generator: Adobe Illustrator 19.0.0, SVG Export Plug-In . SVG Version: 6.00 Build 0)  -->
<svg version="1.1" id="Capa_1" xmlns="http://www.w3.org/2000/svg" xmlns:xlink="http://www.w3.org/1999/xlink" x="0px" y="0px"
	 viewBox="0 0 496 496" style="enable-background:new 0 0 496 496;" xml:space="preserve">
<rect x="8" y="216" style="fill:#656A73;" width="480" height="32"/>
<path d="M488,256H8c-4.8,0-8-3.2-8-8v-32c0-4.8,3.2-8,8-8h480c4.8,0,8,3.2,8,8v32C496,252.8,492.8,256,488,256z M16,240h464v-16H16
	V240z"/>
<rect x="8" y="456" style="fill:#656A73;" width="480" height="32"/>
<path d="M488,496H8c-4.8,0-8-3.2-8-8v-32c0-4.8,3.2-8,8-8h480c4.8,0,8,3.2,8,8v32C496,492.8,492.8,496,488,496z M16,480h464v-16H16
	V480z"/>
<rect x="88" y="184" style="fill:#313740;" width="48" height="32"/>
<path d="M136,224H88c-4.8,0-8-3.2-8-8v-32c0-4.8,3.2-8,8-8h48c4.8,0,8,3.2,8,8v32C144,220.8,140.8,224,136,224z M96,208h32v-16H96
	V208z"/>
<rect x="360" y="184" style="fill:#313740;" width="48" height="32"/>
<path d="M408,224h-48c-4.8,0-8-3.2-8-8v-32c0-4.8,3.2-8,8-8h48c4.8,0,8,3.2,8,8v32C416,220.8,412.8,224,408,224z M368,208h32v-16
	h-32V208z"/>
<rect x="24" y="248" style="fill:#A6A6A6;" width="448" height="208"/>
<path d="M472,464H24c-4.8,0-8-3.2-8-8V248c0-4.8,3.2-8,8-8h448c4.8,0,8,3.2,8,8v208C480,460.8,476.8,464,472,464z M32,448h432V256
	H32V448z"/>
<rect x="24" y="248" style="fill:#313740;" width="32" height="208"/>
<path d="M56,464H24c-4.8,0-8-3.2-8-8V248c0-4.8,3.2-8,8-8h32c4.8,0,8,3.2,8,8v208C64,460.8,60.8,464,56,464z M32,448h16V256H32V448z
	"/>
<rect x="440" y="248" style="fill:#313740;" width="32" height="208"/>
<path d="M472,464h-32c-4.8,0-8-3.2-8-8V248c0-4.8,3.2-8,8-8h32c4.8,0,8,3.2,8,8v208C480,460.8,476.8,464,472,464z M448,448h16V256
	h-16V448z"/>
<path style="fill:#A6A6A6;" d="M344,56v16l-16,16v16l16,16v16l-16,16l0,0c-17.6,0-32-14.4-32-32V56"/>
<path d="M328,160c-22.4,0-40-17.6-40-40V56h16v64c0,12,8.8,22.4,20.8,24l11.2-11.2v-9.6l-13.6-13.6c-1.6-1.6-2.4-3.2-2.4-5.6V88
	c0-2.4,0.8-4,2.4-5.6L336,68.8V56h16v16c0,2.4-0.8,4-2.4,5.6L336,91.2v9.6l13.6,13.6c1.6,1.6,2.4,3.2,2.4,5.6v16
	c0,2.4-0.8,4-2.4,5.6l-16,16C332,159.2,330.4,160,328,160z"/>
<rect x="280" y="8" style="fill:#9F3A37;" width="80" height="48"/>
<path d="M360,64h-80c-4.8,0-8-3.2-8-8V8c0-4.8,3.2-8,8-8h80c4.8,0,8,3.2,8,8v48C368,60.8,364.8,64,360,64z M288,48h64V16h-64V48z"/>
<path style="fill:#A6A6A6;" d="M424,56v16l16,16v16l-16,16v16l16,16l0,0c17.6,0,32-14.4,32-32V56"/>
<path d="M440,160c-2.4,0-4-0.8-5.6-2.4l-16-16c-1.6-1.6-2.4-3.2-2.4-5.6v-16c0-2.4,0.8-4,2.4-5.6l13.6-13.6v-9.6l-13.6-13.6
	c-1.6-1.6-2.4-3.2-2.4-5.6V56h16v12.8l13.6,13.6c1.6,1.6,2.4,3.2,2.4,5.6v16c0,2.4-0.8,4-2.4,5.6L432,123.2v9.6l11.2,11.2
	c12-1.6,20.8-12,20.8-24V56h16v64C480,142.4,462.4,160,440,160z"/>
<rect x="408" y="8" style="fill:#9F3A37;" width="80" height="48"/>
<path d="M488,64h-80c-4.8,0-8-3.2-8-8V8c0-4.8,3.2-8,8-8h80c4.8,0,8,3.2,8,8v48C496,60.8,492.8,64,488,64z M416,48h64V16h-64V48z"/>
<path style="fill:#A6A6A6;" d="M72,56v16L56,88v16l16,16v16l-16,16l0,0c-17.6,0-32-14.4-32-32V56"/>
<path d="M56,160c-22.4,0-40-17.6-40-40V56h16v64c0,12,8.8,22.4,20.8,24L64,132.8v-9.6l-13.6-13.6c-1.6-1.6-2.4-3.2-2.4-5.6V88
	c0-2.4,0.8-4,2.4-5.6L64,68.8V56h16v16c0,2.4-0.8,4-2.4,5.6L64,91.2v9.6l13.6,13.6c1.6,1.6,2.4,3.2,2.4,5.6v16c0,2.4-0.8,4-2.4,5.6
	l-16,16C60,159.2,58.4,160,56,160z"/>
<rect x="8" y="8" style="fill:#313740;" width="80" height="48"/>
<path d="M88,64H8c-4.8,0-8-3.2-8-8V8c0-4.8,3.2-8,8-8h80c4.8,0,8,3.2,8,8v48C96,60.8,92.8,64,88,64z M16,48h64V16H16V48z"/>
<path style="fill:#A6A6A6;" d="M152,56v16l16,16v16l-16,16v16l16,16l0,0c17.6,0,32-14.4,32-32V56"/>
<path d="M168,160c-2.4,0-4-0.8-5.6-2.4l-16-16c-1.6-1.6-2.4-3.2-2.4-5.6v-16c0-2.4,0.8-4,2.4-5.6l13.6-13.6v-9.6l-13.6-13.6
	c-1.6-1.6-2.4-3.2-2.4-5.6V56h16v12.8l13.6,13.6c1.6,1.6,2.4,3.2,2.4,5.6v16c0,2.4-0.8,4-2.4,5.6L160,123.2v9.6l11.2,11.2
	c12-1.6,20.8-12,20.8-24V56h16v64C208,142.4,190.4,160,168,160z"/>
<rect x="136" y="8" style="fill:#313740;" width="80" height="48"/>
<path d="M216,64h-80c-4.8,0-8-3.2-8-8V8c0-4.8,3.2-8,8-8h80c4.8,0,8,3.2,8,8v48C224,60.8,220.8,64,216,64z M144,48h64V16h-64V48z"/>
<rect x="80" y="336" width="48" height="16"/>
<rect x="368" y="336" width="48" height="16"/>
<rect x="384" y="320" width="16" height="48"/>
<polygon style="fill:#CE9D36;" points="200,424 232,368 184,368 240,280 304,280 248,344 312,344 "/>
<path d="M200,432c-4.8,0-8-3.2-8-8c0-1.6,0-2.4,0.8-4l24.8-44H184c-4.8,0-8-3.2-8-8c0-1.6,0.8-3.2,1.6-4l56-88c1.6-2.4,4-4,6.4-4h64
	c4.8,0,8,3.2,8,8c0,1.6-0.8,4-1.6,5.6L265.6,336H312c4.8,0,8,3.2,8,8c0,2.4-1.6,4.8-3.2,6.4l-112,80C203.2,431.2,201.6,432,200,432z
	 M198.4,360H232c4.8,0,8,3.2,8,8c0,1.6,0,2.4-0.8,4l-13.6,24l61.6-44H248c-4.8,0-8-3.2-8-8c0-1.6,0.8-4,1.6-5.6l44.8-50.4H244
	L198.4,360z"/>
<g>
</g>
<g>
</g>
<g>
</g>
<g>
</g>
<g>
</g>
<g>
</g>
<g>
</g>
<g>
</g>
<g>
</g>
<g>
</g>
<g>
</g>
<g>
</g>
<g>
</g>
<g>
</g>
<g>
</g>
</svg>
